<?xml version="1.0" standalone="no"?><svg xmlns="http://www.w3.org/2000/svg" viewBox="0 0 1440 320"><path fill="#0099ff" fill-opacity="1" d="M0,256L40,240C80,224,160,192,240,170.7C320,149,400,139,480,128C560,117,640,107,720,117.3C800,128,880,160,960,144C1040,128,1120,64,1200,69.3C1280,75,1360,149,1400,186.7L1440,224L1440,320L1400,320C1360,320,1280,320,1200,320C1120,320,1040,320,960,320C880,320,800,320,720,320C640,320,560,320,480,320C400,320,320,320,240,320C160,320,80,320,40,320L0,320Z"></path></svg>