<?xml version="1.0" encoding="utf-8"?>
<svg width="471.22" height="456.98" viewBox="0 0 471.22 456.98" fill="none" xmlns="http://www.w3.org/2000/svg">
  <g>
    <path d="M0 136.03C0 60.9027 105.486 0 235.61 0C365.734 0 471.22 60.9027 471.22 136.03C471.22 211.157 365.734 272.06 235.61 272.06C105.486 272.06 0 211.157 0 136.03Z" fill="#F0F0F0" fill-rule="evenodd" transform="translate(0 184.919)" />
    <g transform="translate(14.323 203.669)">
      <path d="M11.5875 38.99C-3.86249 30.07 -3.86249 15.61 11.5875 6.69C27.0375 -2.22998 52.0875 -2.23001 67.5375 6.69C82.9875 15.61 82.9875 30.07 67.5375 38.99C52.0875 47.91 27.0375 47.91 11.5875 38.99Z" fill="#E0E0E0" fill-rule="evenodd" transform="translate(345.01 125.49)" />
      <path d="M1.7175 142.26C-0.5725 140.94 -0.5725 138.79 1.7175 137.47C1.7175 137.47 238.107 0.99028 238.107 0.99028C240.713 -0.330093 243.792 -0.330093 246.398 0.99028C246.398 0.99028 287.047 24.4503 287.047 24.4503C289.338 25.7703 289.338 27.9203 287.047 29.2403C287.047 29.2403 50.6575 165.72 50.6575 165.72C48.0484 167.041 44.9666 167.041 42.3575 165.72C42.3575 165.72 1.7175 142.26 1.7175 142.26Z" fill="#E0E0E0" fill-rule="evenodd" />
    </g>
    <g transform="translate(44.56 0)">
      <g>
        <path d="M95.32 81.92C98.92 79.84 100.72 77.12 100.72 74.39C100.72 71.66 100.72 69.53 100.72 69.53C100.72 69.53 64.48 49.09 64.48 49.09C62.4267 47.7622 61.133 45.5317 61 43.09C61 43.09 61 0 61 0L0 35.26C0 35.26 0 78.33 0 78.33C0.142502 80.7688 1.43385 82.9953 3.47998 84.33C3.47998 84.33 34.32 102.09 34.32 102.09C41.5 106.28 53.18 106.28 60.38 102.12C60.38 102.12 95.32 81.92 95.32 81.92Z" fill="#0087FE" fill-rule="evenodd" transform="translate(97.82 225.449)" />
        <g transform="translate(97.82 225.449)">
          <path d="M95.32 81.92C98.92 79.84 100.72 77.12 100.72 74.39C100.72 71.66 100.72 69.53 100.72 69.53C100.72 69.53 64.48 49.09 64.48 49.09C62.4267 47.7622 61.133 45.5317 61 43.09C61 43.09 61 0 61 0L0 35.26C0 35.26 0 78.33 0 78.33C0.142502 80.7688 1.43385 82.9953 3.47998 84.33C3.47998 84.33 34.32 102.09 34.32 102.09C41.5 106.28 53.18 106.28 60.38 102.12C60.38 102.12 95.32 81.92 95.32 81.92Z" fill="#000000" fill-rule="evenodd" />
        </g>
        <path d="M14.65 57.41L14.65 62.25C14.65 62.25 3.47 55.8 3.47 55.8C1.42409 54.4664 0.135513 52.2384 0 49.8C0 49.8 0 6.70998 0 6.70998C0 6.70998 11.62 0 11.62 0C11.86 2.95003 12.12 6.00002 12.37 9.00002C12.37 9.00002 4.20001 13.7 4.20001 13.7C4.20001 13.7 4.20001 47.35 4.20001 47.35C4.33136 49.7921 5.62543 52.0233 7.67999 53.35C7.67999 53.35 14.65 57.41 14.65 57.41Z" fill="#000000" fill-rule="evenodd" fill-opacity="0.3" transform="translate(97.8 253.999)" />
        <path d="M0 68.92C0.139343 71.3597 1.43147 73.5875 3.47998 74.92C3.47998 74.92 30.1 90.26 30.1 90.26C37.3 94.41 48.98 94.42 56.19 90.26C56.19 90.26 91.19 70.06 91.19 70.06C98.4 65.9 98.4 59.16 91.19 55C91.19 55 64.55 39.66 64.55 39.66C62.5065 38.3242 61.2186 36.0974 61.08 33.66C61.08 33.66 61.08 0 61.08 0L0.0799713 35.26C0.0799713 35.26 0 68.92 0 68.92Z" fill="#0087FE" fill-rule="evenodd" transform="translate(102 232.439)" />
        <path d="M0 68.92C0.139343 71.3597 1.43147 73.5875 3.47998 74.92C3.47998 74.92 30.1 90.26 30.1 90.26C37.3 94.41 48.98 94.42 56.19 90.26C56.19 90.26 91.19 70.06 91.19 70.06C98.4 65.9 98.4 59.16 91.19 55C91.19 55 64.55 39.66 64.55 39.66C62.5065 38.3242 61.2186 36.0974 61.08 33.66C61.08 33.66 61.08 0 61.08 0L0.0799713 35.26C0.0799713 35.26 0 68.92 0 68.92Z" fill="#000000" fill-rule="evenodd" fill-opacity="0.3" transform="translate(102 232.439)" />
        <path d="M71.56 43.77L71.56 43.77C71.56 43.77 64.47 39.68 64.47 39.68C62.4265 38.3442 61.1387 36.1174 61 33.68C61 33.68 61 0 61 0L0 35.26C0 35.26 0 68.92 0 68.92C0.139343 71.3598 1.43147 73.5875 3.47998 74.92C3.47998 74.92 10.48 78.92 10.48 78.92L71.56 43.77Z" fill="#000000" fill-rule="evenodd" fill-opacity="0.5" transform="translate(102.04 232.439)" />
        <path d="M52.85 4.85999C52.85 7.59 51.04 10.3 47.45 12.39C47.45 12.39 12.45 32.58 12.45 32.58C8.61971 34.6245 4.34178 35.6863 0 35.67C0 35.67 0 30.83 0 30.83C4.34178 30.8463 8.61971 29.7846 12.45 27.7401C12.45 27.7401 47.45 7.53006 47.45 7.53006C51.04 5.45999 52.85 2.73001 52.85 0C52.85 0 52.85 4.85999 52.85 4.85999Z" fill="#0087FE" fill-rule="evenodd" transform="translate(145.7 294.989)" />
        <path d="M52.85 4.85999C52.85 7.59 51.04 10.3 47.45 12.39C47.45 12.39 12.45 32.58 12.45 32.58C8.61971 34.6245 4.34178 35.6863 0 35.67C0 35.67 0 30.83 0 30.83C4.34178 30.8463 8.61971 29.7846 12.45 27.7401C12.45 27.7401 47.45 7.53006 47.45 7.53006C51.04 5.45999 52.85 2.73001 52.85 0C52.85 0 52.85 4.85999 52.85 4.85999Z" fill="#000000" fill-rule="evenodd" fill-opacity="0.5" transform="translate(145.7 294.989)" />
        <path d="M4 343.189C6.67434 344.481 9.8033 344.425 12.43 343.039C12.43 343.039 248.43 206.789 248.43 206.789C250.996 205.115 252.612 202.319 252.78 199.259C252.78 199.259 252.78 8.33937 252.78 8.33937C252.688 5.36255 251.18 2.6088 248.72 0.929369C246.049 -0.363937 242.92 -0.304493 240.3 1.08937C240.3 1.08937 4.3 137.379 4.3 137.379C1.74221 139.064 0.144062 141.87 0 144.929C0 144.929 0 335.819 0 335.819C0.0904579 338.771 1.57438 341.505 4 343.189Z" fill="#0087FE" fill-rule="evenodd" />
        <path d="M240.35 201.545C242.92 199.874 244.537 197.076 244.7 194.015C244.7 194.015 244.7 3.10497 244.7 3.10497C244.7 0.334969 242.75 -0.795033 240.35 0.594971C240.35 0.594971 4.35001 136.845 4.35001 136.845C1.78232 138.518 0.166443 141.315 0 144.375C0 144.375 0 335.285 0 335.285C1.52588e-05 338.055 1.95001 339.185 4.35001 337.795C4.35001 337.795 240.35 201.545 240.35 201.545Z" fill="#0087FE" fill-rule="evenodd" transform="translate(8.11 5.234)" />
        <path d="M240.35 201.545C242.92 199.874 244.537 197.076 244.7 194.015C244.7 194.015 244.7 3.10497 244.7 3.10497C244.7 0.334969 242.75 -0.795033 240.35 0.594971C240.35 0.594971 4.35001 136.845 4.35001 136.845C1.78232 138.518 0.166443 141.315 0 144.375C0 144.375 0 335.285 0 335.285C1.52588e-05 338.055 1.95001 339.185 4.35001 337.795C4.35001 337.795 240.35 201.545 240.35 201.545Z" fill="#000000" fill-rule="evenodd" fill-opacity="0.5" transform="translate(8.11 5.234)" />
        <path d="M11.82 24.93C9.31545 26.0232 6.45774 25.9648 4 24.77C1.56883 23.0816 0.084198 20.3387 0 17.38C0 17.38 0 0 0 0L8.15 4.72C8.15 4.72 8.15 22.1 8.15 22.1C8.09999 24.63 9.71 25.78 11.82 24.93Z" fill="#0087FE" fill-rule="evenodd" transform="translate(0 323.059)" />
        <path d="M11.82 24.93C9.31545 26.0232 6.45774 25.9648 4 24.77C1.56883 23.0816 0.084198 20.3387 0 17.38C0 17.38 0 0 0 0L8.15 4.72C8.15 4.72 8.15 22.1 8.15 22.1C8.09999 24.63 9.71 25.78 11.82 24.93Z" fill="#000000" fill-rule="evenodd" fill-opacity="0.5" transform="translate(0 323.059)" />
        <path d="M0 141.31C0 141.31 0 158.69 0 158.69C0 161.46 2 162.58 4.35 161.2C4.35 161.2 240.35 24.95 240.35 24.95C242.906 23.2843 244.52 20.5051 244.7 17.46C244.7 17.46 244.7 0 244.7 0L0 141.31Z" fill="#0087FE" fill-rule="evenodd" transform="translate(8.1 186.469)" />
        <path d="M0 141.27C0 141.27 0 158.69 0 158.69C0 161.46 2 162.58 4.35 161.2C4.35 161.2 240.35 24.95 240.35 24.95C242.902 23.282 244.512 20.5033 244.69 17.46C244.69 17.46 244.69 0 244.69 0L0 141.27Z" fill="#000000" fill-rule="evenodd" fill-opacity="0.3" transform="translate(8.11 186.469)" />
        <path d="M0 133.746C0.0944138 131.91 1.06071 130.231 2.59999 129.226C2.59999 129.226 225.74 0.356094 225.74 0.356094C227.18 -0.473907 228.35 0.196095 228.35 1.85609C228.35 1.85609 228.35 155.546 228.35 155.546C228.252 157.383 227.282 159.063 225.74 160.066C225.74 160.066 2.61 288.906 2.61 288.906C1.17 289.736 0 289.056 0 287.356C0 287.356 0 133.746 0 133.746Z" fill="#0087FE" fill-rule="evenodd" transform="translate(16.26 18.573)" />
        <path d="M0 133.746C0.0944138 131.91 1.06071 130.231 2.59999 129.226C2.59999 129.226 225.74 0.356094 225.74 0.356094C227.18 -0.473907 228.35 0.196095 228.35 1.85609C228.35 1.85609 228.35 155.546 228.35 155.546C228.252 157.383 227.282 159.063 225.74 160.066C225.74 160.066 2.61 288.906 2.61 288.906C1.17 289.736 0 289.056 0 287.356C0 287.356 0 133.746 0 133.746Z" fill="#263238" fill-rule="evenodd" transform="translate(16.26 18.573)" />
        <path d="M4.07999 0.557617C1.67078 2.12454 0.15477 4.74786 0 7.61761C0 10.2176 1.83 11.2776 4.08 9.9776C6.49199 8.40863 8.00838 5.78098 8.16 2.90759C8.15999 0.307617 6.32999 -0.742401 4.07999 0.557617Z" fill="#0087FE" fill-rule="evenodd" transform="translate(126.37 262.102)" />
        <path d="M9.39 4.67998C8.61499 5.98267 8.172 7.45587 8.1 8.96996C8.1 8.96996 8.1 187.15 8.1 187.15L0 182.43C0 182.43 0 4.29997 0 4.29997C0.0524673 2.78088 0.493134 1.30051 1.27999 0C1.27999 0 9.39 4.67998 9.39 4.67998Z" fill="#000000" fill-rule="evenodd" fill-opacity="0.7" transform="translate(0 140.629)" />
        <path d="M251.54 7.57947C251.23 5.33947 249.42 4.57947 247.23 5.78947C247.23 5.78947 11.23 142.039 11.23 142.039C9.95044 142.84 8.89429 143.951 8.16 145.269C8.16 145.269 0 140.559 0 140.559C0.739185 139.241 1.79842 138.13 3.07999 137.329C3.07999 137.329 239.08 1.08947 239.08 1.08947C241.704 -0.304535 244.835 -0.363966 247.51 0.929472C249.753 2.4578 251.223 4.88373 251.54 7.57947Z" fill="#000000" fill-rule="evenodd" fill-opacity="0.3" transform="translate(1.22 0.04)" />
      </g>
    </g>
    <g transform="translate(82.094 30.884)">
      <g>
        <g>
          <g>
            <path d="M227.905 0.229393C227.191 -0.129078 226.337 -0.0636826 225.685 0.399391C225.685 0.399391 3.00549 129.039 3.00549 129.039C1.22346 130.218 0.109398 132.175 0.00549316 134.309C0.00549316 134.309 0.00549316 286.979 0.00549316 286.979C-0.0579529 288.028 0.43132 289.033 1.2955 289.629C1.7855 289.899 4.4055 291.419 5.1855 291.839C5.74735 292.126 6.4197 292.087 6.94551 291.739C6.94551 291.739 229.575 163.099 229.575 163.099C231.358 161.921 232.472 159.964 232.575 157.829C232.575 157.829 232.575 4.3694 232.575 4.3694C232.667 3.57844 232.303 2.80396 231.635 2.3694C231.135 2.03939 228.465 0.559395 227.905 0.229393Z" fill="#0087FE" fill-rule="evenodd" transform="translate(0.05 0.006)" />
            <path d="M3 129.018C3 129.018 225.69 0.427891 225.69 0.427891C227.37 -0.572109 228.69 0.24789 228.69 2.18789C228.69 2.18789 228.69 155.648 228.69 155.648C228.586 157.782 227.472 159.739 225.69 160.918C225.69 160.918 3 289.558 3 289.558C1.32 290.558 0 288.948 0 287.008C0 287.008 0 134.288 0 134.288C0.107086 132.155 1.22041 130.199 3.00001 129.018C3.00001 129.018 3 129.018 3 129.018Z" fill="#FAFAFA" fill-rule="evenodd" transform="translate(3.946 2.187)" />
            <path d="M227.05 1C227.05 1 227.05 1 227.05 1C227.64 1 227.73 1.74001 227.73 2.18C227.73 2.18 227.73 155.64 227.73 155.64C227.621 157.427 226.676 159.057 225.18 160.04C225.18 160.04 2.52 288.68 2.52 288.68C2.37055 288.777 2.19794 288.832 2.02 288.84C1.46 288.84 1.02 287.98 1.02 287C1.02 287 1.02 134.28 1.02 134.28C1.11782 132.495 2.04214 130.857 3.52 129.85C3.52 129.85 226.19 1.28 226.19 1.28C226.448 1.11377 226.744 1.01728 227.05 1C227.05 1 227.05 1 227.05 1ZM227.05 0C226.568 0.0205154 226.1 0.165188 225.69 0.419998C225.69 0.419998 3 129.01 3 129.01C1.22039 130.191 0.107079 132.147 0 134.28C0 134.28 0 287 0 287C0 288.54 0.860001 289.84 2 289.84C2.3531 289.833 2.69812 289.733 3 289.55C3 289.55 225.68 160.91 225.68 160.91C227.462 159.731 228.576 157.774 228.68 155.64C228.68 155.64 228.68 2.18 228.68 2.18C228.68 0.800003 228 3.8147e-06 227 3.8147e-06C227 3.8147e-06 227.05 0 227.05 0Z" fill="#E0E0E0" transform="translate(3.946 2.195)" />
            <path d="M1.28591 145.47C1.61591 145.64 3.98591 146.99 5.02591 147.59C4.26866 146.962 3.85329 146.012 3.90591 145.03C3.90591 145.03 3.90591 2.28 3.90591 2.28L0.00590515 0C0.00590515 0 0.00590515 142.82 0.00590515 142.82C-0.0597687 143.866 0.425522 144.871 1.2859 145.47C1.2859 145.47 1.28591 145.47 1.28591 145.47Z" fill="#F0F0F0" fill-rule="evenodd" transform="translate(0 144.165)" />
            <path d="M228.73 2.14727C228.73 0.227272 227.36 -0.552731 225.73 0.417271C225.73 0.417271 3 129.007 3 129.007C1.22039 130.188 0.107079 132.144 0 134.277C0 134.277 0 144.277 0 144.277L228.73 12.1473C228.73 12.1473 228.73 2.14727 228.73 2.14727Z" fill="#0087FE" fill-rule="evenodd" transform="translate(3.946 2.198)" />
            <g transform="translate(0.936 0)">
              <path d="M6.01001 131.195C5.11626 131.759 4.37999 132.54 3.87 133.465C3.87 133.465 0 131.215 0 131.215C0.509125 130.322 1.23912 129.575 2.12001 129.045C2.12001 129.045 224.8 0.405277 224.8 0.405277C225.45 -0.0610352 226.304 -0.130287 227.02 0.225277C227.56 0.565277 230.09 1.99528 230.74 2.34528C230.057 2.09212 229.293 2.19321 228.7 2.61528C228.7 2.61528 6.01001 131.195 6.01001 131.195Z" fill="#FFFFFF" fill-rule="evenodd" />
            </g>
            <path d="M0 12.96C0 12.96 0 3.05 0 3.05C0.0410843 1.97003 0.361511 0.919174 0.93 0C0.93 0 4.81 2.24001 4.81 2.24001C4.24963 3.14326 3.93588 4.17764 3.89999 5.24001C3.89999 5.24001 3.89999 15.24 3.89999 15.24L0 12.96Z" fill="#000000" fill-rule="evenodd" fill-opacity="0.15" transform="translate(0.006 131.215)" />
          </g>
        </g>
        <path d="M2.23 77.5381C0.914505 78.3916 0.0858765 79.8222 0 81.3881C0 81.3881 0 119.628 0 119.628C0.0858765 121.194 0.914505 122.624 2.23 123.478C2.23 123.478 6.12 125.718 6.12 125.718C7.52205 126.427 9.17793 126.427 10.58 125.718C10.58 125.718 143.93 48.718 143.93 48.718C145.246 47.8601 146.074 46.4265 146.16 44.8581C146.16 44.8581 146.16 6.60806 146.16 6.60806C146.074 5.04225 145.245 3.61163 143.93 2.75806C143.93 2.75806 140.03 0.518051 140.03 0.518051C138.634 -0.179672 136.99 -0.172241 135.6 0.538071C135.6 0.538071 2.23 77.5381 2.23 77.5381Z" fill="#0087FE" fill-rule="evenodd" transform="translate(50.116 118.927)" />
        <path d="M145.5 6.25311C145.34 5.10312 144.41 4.68311 143.29 5.33311C143.29 5.33311 9.92001 82.3331 9.92001 82.3331C9.26228 82.7418 8.72144 83.3137 8.35001 83.9931C8.35001 83.9931 0 79.1731 0 79.1731C0.374237 78.5042 0.91069 77.9403 1.56 77.5331C1.56 77.5331 134.94 0.533081 134.94 0.533081C136.338 -0.177689 137.992 -0.177689 139.39 0.533081C139.39 0.533081 143.29 2.77309 143.29 2.77309C144.493 3.56128 145.298 4.82925 145.5 6.2531C145.5 6.2531 145.5 6.25311 145.5 6.25311Z" fill="#FFFFFF" fill-rule="evenodd" fill-opacity="0.5" transform="translate(50.776 118.942)" />
        <path d="M10.2 46.72C8.87929 47.2405 7.39958 47.1751 6.12999 46.54C6.12999 46.54 2.23 44.3 2.23 44.3C0.916916 43.4442 0.0890656 42.0149 0 40.45C0 40.45 0 2.21002 0 2.21002C0.0300598 1.42944 0.257111 0.669189 0.660004 0C0.660004 0 9.01001 4.82001 9.01001 4.82001C8.60423 5.48059 8.37682 6.2352 8.35001 7.01001C8.35001 7.01001 8.35001 45.26 8.35001 45.26C8.34999 46.53 9.14999 47.12 10.2 46.72Z" fill="#263238" fill-rule="evenodd" transform="translate(50.116 198.115)" />
        <path d="M135.58 0.305252C136.81 -0.404755 137.81 0.165253 137.81 1.58525C137.81 1.58525 137.81 39.8353 137.81 39.8353C137.724 41.4037 136.896 42.8373 135.58 43.6953C135.58 43.6953 2.23 120.695 2.23 120.695C1 121.405 0 120.825 0 119.405C0 119.405 0 81.1652 0 81.1652C0.0814209 79.6005 0.901825 78.1676 2.21005 77.3053C2.21005 77.3053 135.58 0.305252 135.58 0.305252Z" fill="#0087FE" fill-rule="evenodd" transform="translate(58.486 123.97)" />
        <path d="M99.56 0C99.56 0 1.56 56.59 1.56 56.59C0.91069 56.9972 0.374237 57.5612 0 58.23C0 58.23 8.35001 63.05 8.35001 63.05C8.72144 62.3705 9.26228 61.7987 9.92001 61.39C9.92001 61.39 107.92 4.80998 107.92 4.80998L99.56 0Z" fill="#455A64" fill-rule="evenodd" transform="translate(50.796 139.885)" />
        <path d="M100.23 0C100.23 0 2.23 56.58 2.23 56.58C0.914169 57.4379 0.0859375 58.8715 0 60.44C0 60.44 0 98.67 0 98.67C0 100.09 1 100.67 2.23 99.96C2.23 99.96 100.23 43.38 100.23 43.38L100.23 0Z" fill="#37474F" fill-rule="evenodd" transform="translate(58.466 144.695)" />
        <path d="M3.80002 29.7382C3.80002 29.7382 54.37 0.548218 54.37 0.548218C56.46 -0.661789 58.16 0.198212 58.16 2.46822C57.9704 5.05402 56.5588 7.39429 54.36 8.76822C54.36 8.76822 3.8 37.9682 3.8 37.9682C1.71001 39.1782 0 38.3182 0 36.0482C0.191299 33.4603 1.60208 31.1177 3.80003 29.7382C3.80003 29.7382 3.80002 29.7382 3.80002 29.7382Z" fill="#0087FE" fill-rule="evenodd" transform="translate(79.496 166.877)" />
        <path d="M4.30115 0.033844C4.32013 0.0123291 4.34744 0 4.37614 0C4.40485 0 4.43216 0.0123291 4.45114 0.033844C4.4959 0.101807 4.51698 0.182648 4.51114 0.263855C4.51114 0.263855 4.51114 5.95386 4.51114 5.95386C4.51183 6.50327 4.465 7.05197 4.37119 7.5936C4.28859 8.0885 4.1476 8.57187 3.9512 9.0336C3.77197 9.45663 3.53651 9.85355 3.25121 10.2136C2.96989 10.5476 2.63126 10.8287 2.25121 11.0436C1.95358 11.2376 1.60641 11.3417 1.25121 11.3436C0.976913 11.3219 0.723709 11.188 0.551208 10.9736C0.331772 10.6795 0.187576 10.3362 0.131226 9.97363C0.0355377 9.48965 -0.00804138 8.99686 0.0012207 8.5036C0.0012207 8.5036 0.0012207 2.80359 0.0012207 2.80359C0.000915527 2.70386 0.021347 2.60507 0.0612183 2.51361C0.0857239 2.43115 0.138931 2.3602 0.211212 2.3136C0.211212 2.3136 0.841217 1.9436 0.841217 1.9436C0.883469 1.90424 0.948959 1.90424 0.991211 1.9436C1.03743 2.01096 1.05865 2.09232 1.05121 2.17365C1.05121 2.17365 1.05121 7.79364 1.05121 7.79364C1.04355 8.10284 1.07378 8.4118 1.1412 8.71365C1.16879 8.90671 1.25221 9.08743 1.38121 9.23367C1.47243 9.34238 1.60954 9.40167 1.75121 9.39368C1.92227 9.38239 2.08757 9.3273 2.2312 9.2337C2.40907 9.12738 2.57072 8.99603 2.7112 8.84369C2.86728 8.66391 2.99539 8.46164 3.0912 8.24368C3.20401 7.98712 3.28787 7.71881 3.3412 7.4437C3.39954 7.11365 3.42633 6.77881 3.4212 6.4437C3.4212 6.4437 3.4212 0.81369 3.4212 0.81369C3.42432 0.713226 3.44815 0.614502 3.49121 0.523682C3.51572 0.441223 3.56892 0.37027 3.6412 0.323669C3.6412 0.323669 4.30115 0.033844 4.30115 0.033844Z" fill="#FAFAFA" fill-rule="evenodd" transform="translate(89.355 206.251)" />
        <path d="M2.51225 5.1145C2.51746 5.04105 2.5 4.96777 2.46225 4.90454C2.41405 4.85172 2.34319 4.82562 2.27225 4.83453C2.14949 4.81781 2.02501 4.81781 1.90225 4.83453C1.90225 4.83453 1.32225 4.94452 1.32225 4.94452C1.1351 4.99112 0.939392 4.99112 0.752243 4.94452C0.605438 4.89725 0.478683 4.80219 0.392227 4.6745C0.294403 4.51215 0.229813 4.33197 0.202225 4.14447C0.10466 3.60889 0.10466 3.06006 0.202209 2.52448C0.277252 2.21738 0.384521 1.91904 0.522217 1.63446C0.65918 1.35034 0.826843 1.08209 1.02222 0.834473C1.21147 0.59845 1.44183 0.39856 1.70221 0.244476C1.91251 0.116272 2.14775 0.0344543 2.39221 0.00448608C2.56958 -0.013916 2.74818 0.0245972 2.90221 0.114471C3.04887 0.203949 3.16418 0.336731 3.23219 0.494476C3.31284 0.68103 3.35696 0.881317 3.3622 1.08447C3.3726 1.18503 3.35164 1.28632 3.3022 1.37448C3.27769 1.45694 3.22449 1.52789 3.15221 1.57449C3.15221 1.57449 2.5522 1.9245 2.5522 1.9245C2.49651 1.95667 2.4279 1.95667 2.37221 1.9245C2.37221 1.9245 2.2422 1.82449 2.2422 1.82449C2.19054 1.78372 2.12785 1.75937 2.06221 1.75449C1.93362 1.7688 1.81027 1.81335 1.70221 1.88449C1.54521 1.97913 1.40636 2.10104 1.29221 2.24448C1.17122 2.40189 1.1077 2.59595 1.11221 2.79446C1.0981 2.87051 1.0981 2.94846 1.11221 3.02451C1.15099 3.0817 1.21339 3.11841 1.28221 3.12451C1.39145 3.14279 1.50296 3.14279 1.6122 3.12451C1.6122 3.12451 2.1722 3.02451 2.1722 3.02451C2.6422 2.93451 2.96219 3.02451 3.1722 3.28452C3.39285 3.65503 3.49411 4.0845 3.46219 4.51456C3.45961 4.81174 3.4193 5.10742 3.34219 5.3945C3.26312 5.70633 3.14908 6.00824 3.0022 6.29446C2.8553 6.59058 2.67041 6.86621 2.45219 7.11447C2.24501 7.35754 1.9982 7.56378 1.72218 7.72446C1.50235 7.86502 1.25201 7.95074 0.992172 7.97446C0.804169 7.98111 0.61882 7.92865 0.462173 7.82449C0.307785 7.71906 0.189178 7.56906 0.122177 7.3945C0.0413818 7.20486 0.000534058 7.00061 0.00218201 6.79449C-0.00715637 6.6908 0.0136871 6.58664 0.0621796 6.49451C0.0866852 6.41205 0.139893 6.34109 0.212173 6.29449C0.212173 6.29449 0.81218 5.94449 0.81218 5.94449C0.892181 5.94449 0.952179 5.8945 0.992172 5.94449C0.992172 5.94449 1.12218 6.0845 1.12218 6.0845C1.17587 6.14474 1.25157 6.18079 1.33218 6.18454C1.47296 6.18527 1.61003 6.13959 1.7222 6.05453C1.90273 5.95206 2.06494 5.82025 2.20218 5.66452C2.27022 5.58224 2.32736 5.49149 2.37216 5.39456C2.44281 5.31525 2.49117 5.2186 2.51224 5.11447C2.51224 5.11447 2.51225 5.1145 2.51225 5.1145Z" fill="#FAFAFA" fill-rule="evenodd" transform="translate(95.064 206.551)" />
        <path d="M0.000312805 5.04543C-0.00151825 4.52596 0.0419846 4.00731 0.130318 3.49541C0.213814 3.01372 0.344444 2.54146 0.520317 2.08537C0.667366 1.67665 0.869209 1.28978 1.12032 0.935349C1.32993 0.630722 1.60281 0.374893 1.92033 0.185349C2.15215 0.0295258 2.43493 -0.0313263 2.71032 0.0153046C2.95466 0.0719147 3.16882 0.218246 3.31033 0.425339C3.49847 0.69664 3.63102 1.00252 3.70033 1.32533C3.79624 1.74513 3.84322 2.17467 3.84034 2.6053C3.84034 2.6053 3.84034 3.2253 3.84034 3.2253C3.84351 3.3297 3.81939 3.43309 3.77035 3.52528C3.74584 3.60774 3.69263 3.6787 3.62035 3.7253C3.62035 3.7253 1.02035 5.23531 1.02035 5.23531C1.01415 5.41133 1.03783 5.58717 1.09035 5.75529C1.12905 5.86855 1.19825 5.96892 1.29035 6.04533C1.37241 6.11046 1.47584 6.14253 1.58035 6.13533C1.70116 6.12105 1.81731 6.08006 1.92034 6.01534C2.0716 5.93324 2.20705 5.82487 2.32034 5.69533C2.42265 5.58009 2.51 5.45244 2.58031 5.31532C2.62305 5.23631 2.66978 5.15956 2.72031 5.08531C2.76325 5.03444 2.81385 4.99059 2.87031 4.95531C2.87031 4.95531 3.4903 4.59532 3.4903 4.59532C3.53414 4.56023 3.59646 4.56023 3.6403 4.59532C3.69346 4.65926 3.71545 4.74355 3.70029 4.82533C3.68937 5.02031 3.6489 5.21248 3.5803 5.39534C3.49403 5.67271 3.38012 5.94072 3.2403 6.19533C3.08384 6.48811 2.89608 6.76308 2.68031 7.01534C2.46513 7.27299 2.20821 7.49272 1.92031 7.66533C1.68398 7.82011 1.40096 7.88734 1.12029 7.85533C0.874367 7.79622 0.659966 7.64613 0.520287 7.43529C0.323448 7.13206 0.190712 6.79173 0.130287 6.43529C0.0393906 5.97768 -0.00415802 5.51195 0.000312805 5.04543ZM1.92031 1.85542C1.76658 1.93825 1.63332 2.0544 1.53033 2.19542C1.41936 2.3354 1.32848 2.49025 1.26032 2.65538C1.19025 2.8206 1.1334 2.99113 1.09032 3.16539C1.05514 3.32341 1.03173 3.48387 1.02032 3.64537C1.02032 3.64537 2.78031 2.64537 2.78031 2.64537C2.77012 2.50743 2.75007 2.37041 2.72031 2.23534C2.70498 2.11455 2.65652 2.00032 2.58031 1.90535C2.51983 1.81801 2.42554 1.75999 2.32034 1.74535C2.17817 1.73332 2.03634 1.77235 1.92034 1.85542C1.92034 1.85542 1.92031 1.85542 1.92031 1.85542Z" fill="#FAFAFA" transform="translate(99.616 203.91)" />
        <path d="M1.90094 1.99857C1.59792 2.17151 1.35928 2.43823 1.22095 2.75858C1.06531 3.1806 0.993958 3.62906 1.01094 4.07858C1.01094 4.07858 1.01094 7.68857 1.01094 7.68857C1.01234 7.79169 0.991898 7.89392 0.950943 7.98856C0.926437 8.07101 0.87323 8.14197 0.800949 8.18857C0.800949 8.18857 0.210953 8.52856 0.210953 8.52856C0.191971 8.55008 0.164658 8.56241 0.135956 8.56241C0.107254 8.56241 0.0799408 8.55008 0.0609589 8.52856C0.0162048 8.46057 -0.00488281 8.37973 0.000961304 8.29852C0.000961304 8.29852 0.000961304 1.82852 0.000961304 1.82852C0.0014801 1.72562 0.0218506 1.62375 0.0609589 1.52853C0.088913 1.44788 0.141342 1.37796 0.210953 1.32852C0.210953 1.32852 0.800949 0.988525 0.800949 0.988525C0.843201 0.949158 0.908691 0.949158 0.950943 0.988525C0.997269 1.05203 1.01863 1.13034 1.01094 1.20856C1.01094 1.20856 1.01094 1.52856 1.01094 1.52856C1.13011 1.26025 1.27762 1.00549 1.45094 0.768555C1.60912 0.549561 1.81409 0.36853 2.05095 0.238586C2.05095 0.238586 2.41095 0.028595 2.41095 0.028595C2.44984 -0.00952148 2.51207 -0.00952148 2.55096 0.028595C2.59926 0.0953369 2.62389 0.17627 2.62097 0.258606C2.62097 0.258606 2.62097 1.16861 2.62097 1.16861C2.61923 1.27243 2.59537 1.37473 2.55096 1.4686C2.52568 1.54794 2.47685 1.61771 2.41095 1.66861C2.41095 1.66861 1.90094 1.99857 1.90094 1.99857Z" fill="#FAFAFA" fill-rule="evenodd" transform="translate(104.695 200.977)" />
        <path d="M3.63097 6.38953C3.64995 6.36801 3.67726 6.35568 3.70596 6.35568C3.73466 6.35568 3.76198 6.36801 3.78096 6.38953C3.82571 6.45749 3.8468 6.53833 3.84096 6.61954C3.84096 6.61954 3.84096 7.61954 3.84096 7.61954C3.84044 7.72244 3.82008 7.82431 3.78096 7.91953C3.7466 7.99377 3.69521 8.05887 3.63097 8.10953C3.63097 8.10953 0.210968 10.1095 0.210968 10.1095C0.168716 10.1489 0.103226 10.1489 0.0609741 10.1095C0.0162354 10.0453 -0.00495911 9.96756 0.000976563 9.8895C0.000976563 9.8895 0.000976563 0.889496 0.000976563 0.889496C0.00149536 0.786591 0.0218658 0.684723 0.0609741 0.589508C0.0889282 0.511536 0.141602 0.444794 0.210968 0.399506C0.210968 0.399506 0.840973 0.0295105 0.840973 0.0295105C0.883224 -0.00985718 0.948715 -0.00985718 0.990967 0.0295105C1.03571 0.0937805 1.0569 0.171478 1.05096 0.249542C1.05096 0.249542 1.05096 7.85953 1.05096 7.85953C1.05096 7.85953 3.63097 6.38953 3.63097 6.38953Z" fill="#FAFAFA" fill-rule="evenodd" transform="translate(110.425 196.106)" />
        <path d="M1.95998 0.213165C2.18517 0.057373 2.45688 -0.0167389 2.72998 0.00317383C2.96417 0.021637 3.18242 0.128967 3.34 0.303177C3.52638 0.517242 3.66299 0.769974 3.73999 1.04318C3.84682 1.3972 3.90732 1.7636 3.91998 2.13316C3.91998 2.21315 3.91998 2.32317 3.91998 2.45317C3.91998 2.45317 3.91998 3.22316 3.91998 3.22316C3.91998 3.34315 3.91998 3.45317 3.91998 3.54317C3.90021 3.97783 3.83995 4.40971 3.73999 4.83318C3.64752 5.24565 3.5135 5.64772 3.34 6.03319C3.1815 6.39189 2.97639 6.72813 2.72998 7.03319C2.51907 7.30962 2.25783 7.54375 1.95999 7.72319C1.72861 7.87361 1.45563 7.9471 1.17999 7.93321C0.949081 7.91328 0.734482 7.80598 0.579987 7.63322C0.388214 7.42677 0.250763 7.17592 0.179993 6.90321C0.0731659 6.54918 0.0126648 6.18282 0 5.81322C0 5.73323 0 5.63322 0 5.50322C0 5.50322 0 4.73323 0 4.73323C0 4.60323 0 4.49324 0 4.41322C0.011673 3.9752 0.068634 3.53954 0.170013 3.11324C0.267349 2.69765 0.404648 2.29243 0.580017 1.90327C0.738892 1.54692 0.940369 1.21114 1.18002 0.903275C1.392 0.624069 1.65706 0.389542 1.95998 0.21315C1.95998 0.21315 1.95998 0.213165 1.95998 0.213165ZM2.89998 2.79317C2.89954 2.57191 2.86237 2.35228 2.78999 2.14317C2.75281 2.0157 2.67569 1.90355 2.56999 1.82317C2.48479 1.76598 2.38193 1.74113 2.28001 1.75316C2.16573 1.77467 2.05692 1.81886 1.96001 1.88316C1.84248 1.94753 1.73473 2.02834 1.64 2.12315C1.52531 2.24242 1.42772 2.37703 1.35001 2.52315C1.24953 2.70506 1.17545 2.90034 1.13 3.10313C1.06439 3.35851 1.0242 3.6198 1.01001 3.8831C1.01001 3.96309 1.01001 4.05312 1.01001 4.1631C1.01001 4.1631 1.01001 4.87309 1.01001 4.87309C1.01001 4.98308 1.01001 5.0731 1.01001 5.1331C1.01932 5.35429 1.05971 5.5731 1.13 5.78307C1.16652 5.91084 1.24376 6.02321 1.35001 6.10307C1.43411 6.16255 1.5392 6.18431 1.64 6.16307C1.75336 6.14388 1.86198 6.10316 1.96001 6.04308C2.0759 5.97618 2.18333 5.89561 2.28001 5.80309C2.39159 5.68123 2.48888 5.54704 2.57001 5.40309C2.66623 5.21925 2.74008 5.02455 2.79001 4.82314C2.85535 4.56798 2.89223 4.30638 2.90001 4.04314C2.90601 3.94991 2.90601 3.8564 2.90001 3.76314C2.90001 3.76314 2.90001 3.06313 2.90001 3.06313C2.90579 2.97325 2.90578 2.88307 2.89998 2.79317Z" fill="#FAFAFA" transform="translate(115.166 194.882)" />
        <path d="M1.95004 9.65955C2.07797 9.58145 2.19272 9.48358 2.29004 9.36957C2.41046 9.22842 2.51445 9.07413 2.60004 8.90955C2.69939 8.70853 2.77652 8.49728 2.83002 8.27954C2.89151 8.03433 2.92174 7.78232 2.92001 7.52954C2.92001 7.52954 2.92001 7.01953 2.92001 7.01953C2.92001 7.11954 2.82001 7.23953 2.75002 7.37952C2.68144 7.52576 2.60118 7.6662 2.51001 7.79953C2.40556 7.94019 2.29198 8.07379 2.17001 8.19952C2.04457 8.33109 1.89952 8.44241 1.74002 8.52954C1.53241 8.67126 1.27586 8.72183 1.03001 8.66956C0.807755 8.59998 0.616776 8.45496 0.490005 8.25958C0.326996 8.00122 0.208679 7.71722 0.139999 7.41959C0.0547333 7.04193 0.00782776 6.65665 0 6.26956C0 6.13956 0 5.97955 0 5.78955C0 5.59955 0 5.43954 0 5.29956C0.0125122 4.85989 0.0593262 4.42189 0.140015 3.98953C0.222153 3.56396 0.339218 3.14589 0.490021 2.73953C0.631424 2.38676 0.812592 2.05127 1.03 1.73955C1.2144 1.46394 1.45671 1.23189 1.74001 1.05956C1.873 0.979614 2.01828 0.92218 2.17 0.889557C2.28236 0.868668 2.39763 0.868668 2.50999 0.889557C2.59866 0.91452 2.68066 0.958939 2.75002 1.01956C2.81395 1.06845 2.87112 1.12563 2.92001 1.18956C2.92001 1.18956 2.92001 0.869553 2.92001 0.869553C2.92053 0.766617 2.9409 0.664749 2.98001 0.569534C3.00797 0.491547 3.06064 0.42482 3.13 0.379532C3.13 0.379532 3.72 0.0295258 3.72 0.0295258C3.76225 -0.00984192 3.82774 -0.00984192 3.87 0.0295258C3.91829 0.0962677 3.94292 0.177216 3.94 0.259537C3.94 0.259537 3.94 6.75955 3.94 6.75955C3.96693 7.73312 3.78627 8.70126 3.41 9.59955C3.11479 10.306 2.60376 10.9011 1.94998 11.2996C1.72696 11.4381 1.47221 11.5173 1.20998 11.5296C1.0025 11.5421 0.79628 11.4897 0.61998 11.3796C0.450943 11.2531 0.313934 11.0887 0.219986 10.8996C0.122482 10.6716 0.068222 10.4275 0.0599823 10.1797C0.0506439 10.076 0.0714874 9.9718 0.11998 9.87967C0.144485 9.79721 0.197693 9.72626 0.269974 9.67966C0.269974 9.67966 0.799973 9.37967 0.799973 9.37967C0.824554 9.35336 0.858963 9.33841 0.894974 9.33841C0.930984 9.33841 0.965393 9.35336 0.989975 9.37967C1.03926 9.43155 1.08286 9.48853 1.11998 9.54968C1.18085 9.65692 1.2814 9.73593 1.39998 9.76971C1.52005 9.85956 1.70004 9.75955 1.95004 9.65955ZM1.01004 4.80954C1.01004 5.0762 1.01004 5.33621 1.01004 5.58954C0.981491 5.98889 1.09482 6.38553 1.33005 6.70953C1.51393 6.86807 1.78618 6.86807 1.97006 6.70953C2.26027 6.52087 2.48682 6.24902 2.62006 5.92953C2.80215 5.5123 2.90395 5.06448 2.92006 4.60951C2.92006 4.45952 2.92006 4.27951 2.92006 4.06952C2.92006 3.85953 2.92006 3.67952 2.92006 3.54951C2.9404 3.19131 2.83421 2.83737 2.62006 2.54951C2.43636 2.38051 2.15376 2.38051 1.97006 2.54951C1.68549 2.73749 1.46283 3.00537 1.33005 3.31952C1.12463 3.78973 1.01581 4.29645 1.01004 4.80954Z" fill="#FAFAFA" transform="translate(120.196 191.286)" />
        <path d="M0.891487 0.0251465C0.932137 -0.00837708 0.990852 -0.00837708 1.0315 0.0251465C1.08385 0.0898132 1.10896 0.172302 1.10151 0.255157C1.10151 0.255157 1.10151 1.34515 1.10151 1.34515C1.10217 1.4493 1.07818 1.55209 1.0315 1.64517C1.00346 1.72032 0.954964 1.78613 0.891487 1.83517C0.891487 1.83517 0.221489 2.22517 0.221489 2.22517C0.202507 2.2467 0.175194 2.25903 0.146492 2.25903C0.11779 2.25903 0.090477 2.2467 0.0714951 2.22517C0.0187149 2.16469 -0.00662994 2.08504 0.00148773 2.00517C0.00148773 2.00517 0.00148773 0.915176 0.00148773 0.915176C0.000831604 0.81105 0.0248184 0.708252 0.0714951 0.615173C0.0994492 0.537186 0.152122 0.470459 0.221489 0.425171C0.221489 0.425171 0.891487 0.0251465 0.891487 0.0251465ZM1.06149 9.41515C1.06179 9.51491 1.04136 9.61369 1.00149 9.70515C0.969627 9.78368 0.917946 9.85258 0.851494 9.90517C0.851494 9.90517 0.251488 10.2452 0.251488 10.2452C0.234413 10.2663 0.208687 10.2786 0.181496 10.2786C0.154305 10.2786 0.128578 10.2663 0.111488 10.2452C0.0591354 10.1805 0.0340347 10.098 0.041481 10.0152C0.041481 10.0152 0.041481 3.54515 0.041481 3.54515C0.0408249 3.44102 0.0648117 3.33823 0.111488 3.24515C0.139732 3.16733 0.188026 3.09833 0.251503 3.04517C0.251503 3.04517 0.851509 2.70517 0.851509 2.70517C0.893761 2.6658 0.959251 2.6658 1.0015 2.70517C1.04624 2.76941 1.06744 2.84712 1.0615 2.92517C1.0615 2.92517 1.06149 9.41515 1.06149 9.41515Z" fill="#FAFAFA" transform="translate(125.574 187.19)" />
        <path d="M3.81151 6.19994C3.81099 6.30287 3.79062 6.40474 3.75151 6.49995C3.72356 6.57794 3.67088 6.64467 3.60152 6.68996C3.60152 6.68996 3.00151 7.03996 3.00151 7.03996C2.96262 7.07808 2.90039 7.07808 2.86151 7.03996C2.80916 6.9753 2.78406 6.89281 2.7915 6.80995C2.7915 6.80995 2.7915 3.28995 2.7915 3.28995C2.82224 2.87447 2.74652 2.45801 2.5715 2.07994C2.4315 1.82994 2.2115 1.78995 1.9015 1.96994C1.59233 2.1777 1.3631 2.48453 1.25151 2.83994C1.08458 3.31172 1.0033 3.80956 1.01152 4.30994C1.01152 4.30994 1.01152 7.83994 1.01152 7.83994C1.011 7.94286 0.990631 8.04472 0.951523 8.13994C0.927017 8.22237 0.87381 8.29332 0.801529 8.33992C0.801529 8.33992 0.211533 8.67992 0.211533 8.67992C0.192551 8.70145 0.165237 8.71378 0.136536 8.71378C0.107834 8.71378 0.0805206 8.70145 0.0615387 8.67992C0.015213 8.61644 -0.00614929 8.53812 0.00154114 8.45992C0.00154114 8.45992 0.00154114 1.98991 0.00154114 1.98991C0.00012207 1.8868 0.0205841 1.78455 0.0615387 1.6899C0.0860443 1.60747 0.139252 1.53651 0.211533 1.48991C0.211533 1.48991 0.801529 1.14992 0.801529 1.14992C0.820511 1.12839 0.847824 1.11606 0.876526 1.11606C0.905228 1.11606 0.932541 1.12839 0.951523 1.14992C0.996277 1.2179 1.01736 1.29874 1.01152 1.37991C1.01152 1.37991 1.01152 1.68994 1.01152 1.68994C1.1431 1.38515 1.30385 1.0938 1.49152 0.819946C1.65616 0.567459 1.87909 0.358246 2.14151 0.209961C2.36908 0.0436554 2.65222 -0.0280304 2.9315 0.00994873C3.15535 0.0662842 3.34451 0.215439 3.45152 0.419952C3.59668 0.690643 3.69156 0.985413 3.73152 1.28995C3.78493 1.68773 3.81166 2.08862 3.81154 2.48994C3.81154 2.48994 3.81151 6.19994 3.81151 6.19994Z" fill="#FAFAFA" fill-rule="evenodd" transform="translate(128.084 187.355)" />
        <path d="M10.11 22.9355L0.399994 28.5355C0.399994 28.5355 1.91 14.9155 1.91 14.9155C0.73999 14.2955 0 12.7855 0 10.6155C0 6.74548 2.35999 2.25548 5.26001 0.615479C8.16003 -1.02452 10.51 0.715485 10.51 4.61548C10.45 6.91008 9.79526 9.1498 8.61002 11.1155C8.61002 11.1155 10.11 22.9355 10.11 22.9355Z" fill="#455A64" fill-rule="evenodd" transform="translate(172.226 141.51)" />
        <path d="M9.72 4.92999L1.16998 0L0 10.54L9.72 4.92999L9.72 4.92999Z" fill="#37474F" fill-rule="evenodd" transform="translate(172.626 159.515)" />
        <path d="M4.47998 0.628708C2.3653 2.05734 0.788513 4.15152 0 6.5787C0 6.5787 7.82999 11.0987 7.82999 11.0987C7.82999 11.0987 7.82999 11.0987 7.82999 11.0987C9.01523 9.13301 9.66992 6.89331 9.72998 4.59871C9.74997 0.728699 7.39999 -1.04129 4.47998 0.628708Z" fill="#37474F" fill-rule="evenodd" transform="translate(172.986 141.467)" />
        <path d="M31.36 1.22543C28.03 -0.694565 23.44 -0.424561 18.36 2.50543C8.22 8.36543 0 22.5954 0 34.3054C0 40.1854 2.08 44.3054 5.42 46.2054C5.42 46.2054 11.89 49.9654 11.89 49.9654C15.21 51.8854 19.8 51.6054 24.89 48.6754C35.03 42.8254 43.25 28.5854 43.25 16.8754C43.25 11.0254 41.19 6.87543 37.87 5.00543C37.87 5.00543 31.36 1.22543 31.36 1.22543Z" fill="#0087FE" fill-rule="evenodd" transform="translate(98.906 95.52)" />
        <path d="M18.36 2.50595C8.22 8.36595 0 22.606 0 34.306C0 46.006 8.22 50.766 18.36 44.906C28.5 39.046 36.73 24.816 36.72 13.106C36.71 1.39595 28.49 -3.34406 18.36 2.50595Z" fill="#0087FE" fill-rule="evenodd" transform="translate(105.426 99.289)" />
        <path d="M20.27 8.0862C17.8409 12.4223 14.3566 16.0751 10.14 18.7062C6.19 20.9762 2.62 21.2262 0 19.7762C0 19.7762 0 17.0162 0 17.0162C0.27211 11.1896 3.35072 5.85609 8.26001 2.70619C8.26001 2.70619 10.93 1.1662 10.93 1.1662C13.29 -0.193802 15.59 -0.373795 17.39 0.676193C19.19 1.72618 20.27 3.9362 20.27 6.7462C20.27 6.7462 20.27 8.0862 20.27 8.0862Z" fill="#0087FE" fill-rule="evenodd" transform="translate(113.646 121.029)" />
        <path d="M35.19 5.00237C31.87 3.07237 27.28 3.34236 22.19 6.27237C15.55 10.1124 9.73 17.5424 6.50999 25.5024C6.50999 25.5024 0 21.7324 0 21.7324C3.23 13.7324 9 6.34236 15.68 2.50237C20.78 -0.417633 25.37 -0.697632 28.69 1.22237C28.69 1.22237 35.19 5.00237 35.19 5.00237Z" fill="#FFFFFF" fill-rule="evenodd" fill-opacity="0.4" transform="translate(101.576 95.523)" />
        <path d="M5.42 11.9C2.08 10 0 5.89999 0 0C0 0 6.50999 3.78 6.50999 3.78C6.54999 9.48 8.46999 13.54 11.65 15.51C11.65 15.51 5.42 11.9 5.42 11.9Z" fill="#000000" fill-rule="evenodd" fill-opacity="0.2" transform="translate(98.916 129.825)" />
        <path d="M2.64 4.57764e-05C2.64 4.57764e-05 9.14999 3.77005 9.14999 3.77005C7.48195 7.75507 6.58607 12.0207 6.50999 16.34C6.50999 16.34 6.50999 16.34 6.50999 16.34C6.50999 16.34 0 12.56 0 12.56C0.0802155 8.24432 0.975967 3.98277 2.64001 0C2.64001 0 2.64 4.57764e-05 2.64 4.57764e-05Z" fill="#000000" fill-rule="evenodd" fill-opacity="0.1" transform="translate(98.956 117.255)" />
        <path d="M3.69832 14.3965C3.07791 14.4033 2.46692 14.2445 1.9283 13.9365C0.605698 13.0549 -0.127487 11.5194 0.0182953 9.93652C0.19046 6.23955 2.14351 2.85529 5.2583 0.856506C5.2583 0.856506 5.2583 0.856506 5.2583 0.856506C6.52031 -0.150986 8.27101 -0.281464 9.66843 0.527802C11.0659 1.33707 11.824 2.92047 11.5783 4.51651C11.4028 8.21249 9.45059 11.5954 6.33829 13.5965C5.54453 14.092 4.63356 14.368 3.6983 14.3965C3.6983 14.3965 3.69832 14.3965 3.69832 14.3965Z" fill="#FFFFFF" fill-rule="evenodd" transform="translate(117.768 107.169)" />
        <path d="M17.39 0.676193C15.59 -0.37381 13.29 -0.193802 10.93 1.1662C10.93 1.1662 8.26001 2.70619 8.26001 2.70619C3.34792 5.85812 0.268921 11.196 0 17.0262C0 17.0262 0 19.7962 0 19.7962C2.62 21.2462 6.19 20.9962 10.14 18.7262C14.3566 16.0951 17.8409 12.4423 20.27 8.1062C20.27 8.1062 20.27 6.7662 20.27 6.7662C20.27 3.9462 19.23 1.73621 17.39 0.676193Z" fill="#FFFFFF" fill-rule="evenodd" transform="translate(113.646 121.019)" />
      </g>
    </g>
    <g transform="translate(418.71 289.484)">
      <g>
        <path d="M0 36.0957C0 36.0957 1.32999 24.4157 7.14001 15.3457C12.95 6.27567 20.93 0.625671 28.38 0.035675C35.83 -0.554321 41.85 6.30566 33.88 11.0357C25.91 15.7657 11.75 20.5457 5.23001 38.1457C5.23001 38.1457 0 36.0957 0 36.0957Z" fill="#0087FE" fill-rule="evenodd" />
        <path d="M0 36.0957C0 36.0957 1.32999 24.4157 7.14001 15.3457C12.95 6.27567 20.93 0.625671 28.38 0.035675C35.83 -0.554321 41.85 6.30566 33.88 11.0357C25.91 15.7657 11.75 20.5457 5.23001 38.1457C5.23001 38.1457 0 36.0957 0 36.0957Z" fill="#000000" fill-rule="evenodd" fill-opacity="0.1" />
        <path d="M0.249115 29.5303C0.045105 29.4471 -0.0532532 29.2146 0.0291443 29.0103C7.88913 9.66031 22.8492 1.57031 29.6692 0.0103149C29.8845 -0.0393372 30.0994 0.0950012 30.149 0.310394C30.1987 0.525757 30.0644 0.740601 29.8491 0.790314C23.1691 2.33032 8.49905 10.2703 0.769073 29.3203C0.689636 29.4846 0.506836 29.5719 0.329102 29.5303C0.329102 29.5303 0.249115 29.5303 0.249115 29.5303Z" fill="#FFFFFF" fill-rule="evenodd" transform="translate(1.861 3.525)" />
        <path d="M39.1125 10.0398C38.4425 11.5598 36.7825 12.3598 35.2425 12.9798C33.7025 13.5998 32.0225 14.2698 31.1825 15.7098C29.5025 18.6098 32.2625 22.7098 30.4625 25.5198C29.6062 26.663 28.3203 27.4071 26.9025 27.5798C25.7525 27.7898 24.5825 27.7898 23.4225 27.8898C22.8669 27.8825 22.3124 27.8391 21.7625 27.7598C20.1465 27.3993 18.4569 27.5784 16.9525 28.2698C14.6425 29.5698 13.9525 32.4798 12.5325 34.7298C10.7769 37.4106 7.93964 39.1926 4.76248 39.6098C3.76248 39.7398 1.76248 39.9298 0.762482 39.3398C0.684174 39.3014 0.610382 39.2545 0.54245 39.1998C0.54245 39.1998 0.54245 39.1998 0.54245 39.1998C0.392456 39.0398 0.212463 38.8298 0.132446 38.7198C0.127289 38.6968 0.127289 38.6729 0.132446 38.6498C-0.277557 37.1398 0.392456 35.5798 0.422455 34.0198C0.422455 34.0198 0.422455 33.7398 0.422455 33.7398C0.352448 31.9298 0.30246 30.1298 0.262451 28.3298C0.175781 24.9965 0.142456 21.6631 0.162445 18.3298C0.162445 16.1698 -0.0775452 13.8098 0.842438 11.7798C1.84244 9.53983 4.36243 9.48981 5.31244 7.2998C5.69244 6.4198 5.89243 5.48981 6.26245 4.59979C7.42795 1.96228 9.96466 0.19278 12.8424 0.00982666C17.2324 -0.210175 21.1624 3.33981 25.5524 3.00983C26.6824 2.91983 27.7924 2.56982 28.9124 2.36981C32.4624 1.6998 36.5724 2.70981 38.5724 5.71982C39.4639 6.97876 39.6666 8.60016 39.1125 10.0398Z" fill="#0087FE" fill-rule="evenodd" transform="translate(2.858 23.246)" />
        <path d="M0.272308 26.1078C0.0757751 26.0497 -0.0392761 25.8461 0.0122986 25.6478C6.0723 2.90781 30.0123 -0.352203 35.6423 0.0278015C35.7423 0.0328979 35.8361 0.0783081 35.902 0.153687C35.968 0.229065 36.0005 0.327972 35.9923 0.427795C35.9713 0.629852 35.7951 0.779602 35.5923 0.767822C30.1024 0.377808 6.66235 3.58783 0.73233 25.8478C0.674194 26.0443 0.470673 26.1594 0.272308 26.1078C0.272308 26.1078 0.272308 26.1078 0.272308 26.1078Z" fill="#FFFFFF" fill-rule="evenodd" transform="translate(2.278 28.858)" />
        <path d="M16.9342 5.72119C16.8584 5.71066 16.7881 5.67554 16.7342 5.62122C12.2529 1.73755 6.27316 0.054718 0.424164 1.03122C0.22226 1.04996 0.0396729 0.910858 0.00415039 0.711212C-0.026062 0.507568 0.111389 0.316895 0.314148 0.281219C6.41476 -0.734192 12.6499 1.03 17.3142 5.09122C17.3857 5.16086 17.426 5.25641 17.426 5.3562C17.426 5.45599 17.3857 5.55154 17.3142 5.62122C17.2216 5.73175 17.0692 5.77182 16.9342 5.72119Z" fill="#FFFFFF" fill-rule="evenodd" transform="translate(12.246 37.724)" />
      </g>
    </g>
    <g transform="translate(359.56 39.634)">
      <g>
        <path d="M7.29999 12.5157C7.29999 12.5157 7.29999 5.51569 7.29999 5.51569C7.29999 -0.0443115 11.73 -1.37431 16.54 1.40569C16.54 1.40569 16.54 1.40569 16.54 1.40569C21.36 4.18568 25.26 10.9357 25.26 16.4957C25.26 16.4957 25.26 17.4957 25.26 17.4957C26.618 17.0807 28.0913 17.3091 29.26 18.1157C29.26 18.1157 29.26 18.1157 29.26 18.1157C32.9645 20.5312 35.2939 24.5695 35.53 28.9857C35.53 28.9857 35.53 29.4457 35.53 29.4457C35.53 29.4457 39.97 32.0057 39.97 32.0057C42.4061 33.5959 43.9397 36.2509 44.1 39.1557C44.1 41.7957 42.25 42.8657 39.97 41.5457C39.97 41.5457 4.12 20.8357 4.12 20.8357C1.68164 19.2489 0.150085 16.591 0 13.6857C0 11.0557 1.82999 9.98569 4.12 11.2957C4.12 11.2957 7.29999 12.5157 7.29999 12.5157Z" fill="#E6E6E6" fill-rule="evenodd" />
        <path d="M8.36002 6.47734C8.32843 6.22521 8.31174 5.97144 8.31003 5.71735C8.31003 5.71735 8.31003 4.04734 8.31003 4.04734C8.31003 1.04734 10.39 -0.13266 12.97 1.35734C14.0786 2.03613 15.027 2.94701 15.75 4.02734C16.17 0.287338 19.11 -1.10266 22.67 0.947334C26.7961 3.63204 29.396 8.12229 29.67 13.0373C29.67 13.0373 29.67 15.5373 29.67 15.5373C29.6958 16.5362 29.494 17.5279 29.08 18.4373C29.08 18.4373 33.88 21.1973 33.88 21.1973C35.397 22.2034 36.3469 23.8694 36.44 25.6873C36.44 27.3373 35.28 28.0073 33.85 27.1873C33.85 27.1873 2.59003 9.18735 2.59003 9.18735C1.0564 8.18814 0.0936279 6.51534 0 4.68734C3.05176e-05 2.99734 1.16003 2.32734 2.59003 3.14734C2.59003 3.14734 8.36002 6.47734 8.36002 6.47734Z" fill="#E6E6E6" fill-rule="evenodd" transform="translate(44.12 2.608)" />
      </g>
    </g>
    <g transform="translate(288.56 145.966)">
      <g>
        <path d="M53.4195 12.0156C49.2195 19.1156 45.1795 25.2856 42.3395 28.2456C36.9495 30.7456 24.2896 34.6056 19.3395 35.2456C18.47 35.3563 17.5897 35.1505 16.8595 34.6656C14.9095 33.3856 13.3995 33.1756 11.3495 32.4656C9.7395 31.9156 9.05948 31.1456 8.75949 31.4656C8.11496 32.221 8.1904 33.3525 8.9295 34.0156C9.6987 34.7464 10.5512 35.3842 11.4695 35.9156C9.2738 36.4604 6.98331 36.5014 4.7695 36.0356C0.479492 34.9056 -1.5405 36.9656 1.3595 41.6256C2.3595 43.2856 6.47949 45.9556 14.7595 45.2356C17.7133 45.0763 20.6551 44.7424 23.5695 44.2356C31.5095 42.5356 40.3395 40.8956 45.7695 39.2356C47.7894 38.4414 49.597 37.1884 51.0495 35.5756C60.1795 25.1656 63.2095 17.7456 67.2095 11.0056C67.2095 11.0056 66.8695 0.00561523 66.8695 0.00561523C60.3895 -0.214355 56.9295 6.07564 53.4195 12.0156Z" fill="#FFA8A7" fill-rule="evenodd" transform="translate(41.951 39.178)" />
        <path d="M22.2 0.101578C18.3705 -0.436752 14.5581 1.19215 12.3 4.33156C7.85999 10.0216 0 23.6816 0 23.6816C0 23.6816 2.57001 30.5316 9.51001 31.6816C9.51001 31.6816 20.66 16.6216 20.66 16.6216C20.66 16.6216 25.94 6.16158 22.2 0.101578Z" fill="#455A64" fill-rule="evenodd" transform="translate(87.73 38.862)" />
        <rect width="7.27" height="12.96" fill="#FFA8A7" fill-rule="evenodd" transform="translate(126.77 192.504)" />
        <path d="M7.63 13.72L0.369995 13.98L0 0.26001L7.63 0L7.63 13.72L7.63 13.72Z" fill="#FFA8A7" fill-rule="evenodd" transform="translate(101.21 178.094)" />
        <path d="M38.3829 0.0599823C38.3829 7.27998 37.3229 65.45 37.3229 65.45C37.4829 67.53 39.3229 71.37 38.9529 79.36C38.4029 90.21 37.6729 118.73 37.6729 118.73C35.1441 120.024 32.1608 120.083 29.5829 118.89C29.5829 118.89 23.6829 78.89 22.3828 68.18C21.2429 58.79 18.3229 27.71 18.3229 27.71C18.3229 27.71 14.3929 64.45 14.3929 64.45C15.226 68.392 15.5287 72.4277 15.2929 76.45C14.9529 81.45 12.6129 107.33 12.6129 107.33C10.068 108.831 6.97388 109.078 4.2229 108C4.2229 108 0.0828857 69 0.00289917 64.42C-0.0971069 59.22 2.42291 0 2.42291 0C2.42291 0 38.3829 0.0599823 38.3829 0.0599823Z" fill="#37474F" fill-rule="evenodd" transform="translate(96.677 80.253)" />
        <path d="M11.4936 0.0580444C10.7936 0.368042 9.18362 6.78806 6.29361 9.52805C4.0036 11.708 0.883606 14.218 0.0836182 16.648C-0.71637 19.078 4.43362 20.5681 6.58362 20.178C9.06363 19.718 13.3836 17.888 14.4636 16.178C15.5436 14.468 16.0536 11.988 16.9336 10.748C17.8136 9.50806 19.8436 8.12805 20.3136 6.68805C20.4603 5.34073 20.3206 3.97763 19.9037 2.68805C19.5637 1.34805 19.2036 -0.121948 18.7636 0.00805664C18.7636 0.00805664 18.7636 0.828064 18.7636 0.828064C17.7385 1.6694 16.4497 2.12259 15.1236 2.10803C14.0636 2.19803 11.4836 1.97803 11.4936 1.13803C11.4936 1.13803 11.4936 0.0580444 11.4936 0.0580444Z" fill="#263238" fill-rule="evenodd" transform="translate(115.276 200.585)" />
        <path d="M17.2849 0.524872C16.9048 0.524872 16.5948 1.09488 15.7649 2.03488C14.5307 3.33307 13.0873 4.41476 11.4949 5.23489C8.77487 6.65491 3.49487 8.8349 1.08487 9.9649C-0.415131 10.6649 -0.345123 12.5449 1.20486 13.6149C2.75485 14.6849 6.48486 15.4549 10.9649 14.4149C13.4049 13.8449 16.5849 11.4949 18.6049 11.6249C20.6249 11.7549 24.3749 11.7149 25.8649 10.6249C27.3549 9.53488 26.7549 7.27487 26.3349 5.32489C25.8749 3.18488 25.3349 -0.145111 24.6249 0.00488281C24.6249 0.00488281 24.6249 0.754883 24.6249 0.754883C23.7549 2.13489 19.2449 2.69489 17.3249 1.68488C17.3249 1.68488 17.2849 0.524872 17.2849 0.524872Z" fill="#263238" fill-rule="evenodd" transform="translate(84.215 189.209)" />
        <path d="M10.12 6.04999C6.33826 4.81204 2.88077 2.74506 0 0C0 0 2 3.81 7.76001 7.35999C7.76001 7.35999 6.52002 40.17 6.52002 40.17C6.52002 40.17 10.12 6.04999 10.12 6.04999Z" fill="#263238" fill-rule="evenodd" transform="translate(104.88 101.914)" />
        <path d="M32.83 1.08002C32.83 1.08002 38.83 2.46002 38.4 13.3C38.4 13.3 37.15 30.55 37.15 30.55C37.15 30.55 37.15 56.45 37.15 56.45C31.81 62.51 8.14999 62.07 0 55.97C0 55.97 0.920013 25.32 1.47 13.52C1.86002 5.14 3.79001 0.919998 12.03 0C12.03 0 22.16 0.440002 22.16 0.440002C22.16 0.440002 32.83 1.08002 32.83 1.08002Z" fill="#0087FE" fill-rule="evenodd" transform="translate(98.17 38.943)" />
        <path d="M22.1117 11.27C22.1814 14.2012 21.078 17.0389 19.0464 19.1531C17.0149 21.2672 14.2234 22.4828 11.2917 22.53C5.29175 22.53 1.77176 17.35 0.471741 11.27C-1.92825 0.139999 5.31174 0 11.2917 0C17.3911 0.125763 22.2345 5.17062 22.1117 11.27Z" fill="#263238" fill-rule="evenodd" transform="translate(101.248 6.233)" />
        <path d="M4.32999 0C4.32999 0 2.66998 8.12 2 9.46001C1.57864 10.2665 0.862152 10.8791 0 11.17C0 11.17 0.119995 5.46001 0.119995 5.46001C0.119995 5.46001 4.32999 0 4.32999 0Z" fill="#263238" fill-rule="evenodd" transform="translate(124.55 22.053)" />
        <path d="M1.04001 0.0162201C1.04001 0.0162201 2.23001 -0.283783 3.5 1.69621C4.57999 3.38622 4.82999 7.18622 3.13 11.6962C3.13 11.6962 0 12.0762 0 12.0762C0 12.0762 1.04001 0.0162201 1.04001 0.0162201Z" fill="#263238" fill-rule="evenodd" transform="translate(125.75 10.407)" />
        <path d="M3.84 2C3.89316 1.49828 3.73447 0.997116 3.40222 0.617416C3.07001 0.237717 2.59433 0.013916 2.09 0C1.00284 0.015625 0.10199 0.847534 0 1.92999C0 1.92999 3.84 2 3.84 2Z" fill="#263238" fill-rule="evenodd" transform="translate(127.94 10.143)" />
        <path d="M0.481873 3.37633C0.481873 3.37633 3.32187 0.646332 3.32187 0.646332C2.99103 0.256256 2.51202 0.0224304 2.00098 0.00152588C1.48993 -0.0193634 0.993439 0.174576 0.631866 0.536346C-0.149109 1.29994 -0.214325 2.5347 0.481842 3.37631C0.481842 3.37631 0.481873 3.37633 0.481873 3.37633Z" fill="#263238" fill-rule="evenodd" transform="translate(127.928 7.787)" />
        <path d="M22.2932 17.0091C22.9232 17.3991 23.8132 16.1491 24.5932 15.2991C25.3732 14.4491 27.7932 13.6691 29.0532 16.4291C30.3132 19.1891 28.1632 21.9191 26.3632 22.8191C23.1332 24.4191 22.1132 22.0891 22.1132 22.0891C22.1132 22.0891 21.8432 34.9491 21.8432 34.9491C17.3032 41.9491 7.0032 41.7291 10.7132 34.6091C10.7132 34.6091 10.7132 30.6991 10.7132 30.6991C9.18713 30.9529 7.6373 31.0334 6.09317 30.9391C3.57318 30.5392 1.99316 28.4691 1.22318 25.6292C0.00317383 21.0692 -0.466827 17.3891 0.573181 8.41914C1.7132 -1.40086 12.6932 -1.51085 18.5732 2.41914C24.4532 6.34914 22.2932 17.0091 22.2932 17.0091Z" fill="#FFA8A7" fill-rule="evenodd" transform="translate(102.517 5.424)" />
        <path d="M11.8197 12.3135C14.4397 12.0535 17.0297 11.5135 19.6597 11.3135C20.2268 11.2448 20.8015 11.2718 21.3597 11.3935C23.3597 11.9435 23.1197 14.2835 23.4397 15.9135C23.9897 18.7335 24.4397 23.5035 25.4997 23.5235C25.8197 23.5235 27.0197 21.4535 27.7997 20.7135C28.2284 20.0759 28.4709 19.3313 28.4997 18.5635C28.6997 17.4035 28.7997 16.2135 28.8897 15.0335C28.9697 14.0335 29.0697 13.0335 29.0697 12.0335C29.1154 10.9034 29.0247 9.77194 28.7997 8.66353C28.549 7.72054 28.0679 6.8546 27.3997 6.14354C27.3997 6.14354 27.1997 5.92354 27.1997 5.92354C25.8815 4.54546 24.2819 3.46765 22.5096 2.76353C19.9599 1.8083 17.2857 1.22565 14.5696 1.03354C11.8573 0.841431 9.15698 0.507645 6.47955 0.0335388C6.32605 -0.0111847 6.16302 -0.0111847 6.00955 0.0335388C5.78891 0.155716 5.64569 0.381851 5.62955 0.633545C5.40567 1.90183 5.93097 3.18582 6.97955 3.93355C5.16956 4.07355 3.08954 3.13354 1.34955 2.65355C1.06512 2.53296 0.743958 2.53296 0.459534 2.65355C0.285004 2.77559 0.160645 2.95679 0.109528 3.16354C-0.0170898 3.63339 -0.0341797 4.12604 0.0595398 4.60355C0.218781 6.05084 0.756866 7.43056 1.61954 8.60355C2.96738 10.3583 4.87146 11.603 7.01956 12.1335C8.60101 12.4384 10.2198 12.4991 11.8197 12.3135Z" fill="#263238" fill-rule="evenodd" transform="translate(99.31 0)" />
        <path d="M0 5.07001C0 5.07001 5.62 3.89001 7.57999 2.8C8.7475 2.16127 9.69537 1.18552 10.3 0C10.0049 1.19104 9.47821 2.31236 8.75 3.29999C7.32001 5.21999 0 6.62 0 6.62C0 6.62 0 5.07001 0 5.07001Z" fill="#F28F8F" fill-rule="evenodd" transform="translate(113.24 31.053)" />
        <path d="M0.000732422 1.22592C-0.0218201 1.86848 0.478333 2.40884 1.12073 2.43593C1.62213 2.47717 2.09744 2.20639 2.31763 1.75403C2.53784 1.30168 2.45779 0.760544 2.11603 0.391327C1.77429 0.02211 1.24094 -0.0994568 0.772949 0.0851898C0.304932 0.269836 -0.00170898 0.722839 0.000732422 1.22594C0.000732422 1.22594 0.000732422 1.22592 0.000732422 1.22592Z" fill="#263238" fill-rule="evenodd" transform="translate(114.589 19.738)" />
        <path d="M0 0.778885C0 0.778885 2.41 2.16888 2.41 2.16888C2.77371 1.45822 2.52988 0.587357 1.85001 0.168884C1.52692 -0.0124207 1.14249 -0.0496216 0.790619 0.066391C0.438782 0.182419 0.151855 0.440964 0 0.7789C0 0.7789 0 0.778885 0 0.778885Z" fill="#263238" fill-rule="evenodd" transform="translate(116.39 15.335)" />
        <path d="M0 1C0.104492 1.35631 0.352112 1.65331 0.683868 1.82011C1.01559 1.98694 1.40167 2.00862 1.75 1.88C2.47598 1.56731 2.83475 0.744843 2.57001 0C2.57001 0 0 1 0 1Z" fill="#F28F8F" fill-rule="evenodd" transform="translate(111.17 29.073)" />
        <path d="M0.264771 2.35791C0.264771 2.35791 2.46478 0.597916 2.46478 0.597916C2.26541 0.287216 1.94333 0.075943 1.57895 0.0167999C1.21454 -0.0423431 0.842163 0.0562286 0.554779 0.287918C-0.0538635 0.80394 -0.17865 1.69447 0.264801 2.35789C0.264801 2.35789 0.264771 2.35791 0.264771 2.35791Z" fill="#263238" fill-rule="evenodd" transform="translate(103.985 14.786)" />
        <path d="M0.00109863 1.22C0.0498352 1.82997 0.575256 2.29033 1.18634 2.25845C1.79742 2.22659 2.27213 1.7141 2.25717 1.10236C2.24219 0.490616 1.74301 0.00193787 1.1311 0C0.818939 0.0103912 0.523895 0.145157 0.311646 0.374313C0.0993958 0.603455 -0.0124207 0.907959 0.00109863 1.22Z" fill="#263238" fill-rule="evenodd" transform="translate(105.219 19.413)" />
        <path d="M4.17001 0L4.04001 7.11L0 6.19L4.17001 0L4.17001 0Z" fill="#F28F8F" fill-rule="evenodd" transform="translate(107.08 19.693)" />
        <path d="M0 6.63L6.26999 3.01001L8.75 0L2.48999 3.62001L0 6.63" fill="#0087FE" fill-rule="evenodd" transform="translate(15.31 72.613)" />
        <path d="M0 6.63L6.26999 3.01001L8.75 0L2.48999 3.62001L0 6.63" fill="#000000" fill-rule="evenodd" fill-opacity="0.4" transform="translate(15.31 72.613)" />
        <path d="M0 8.25L6.27002 4.63L11.5 0L5.24002 3.61002L0 8.25" fill="#0087FE" fill-rule="evenodd" transform="translate(32.36 80.833)" />
        <path d="M0 8.25L6.27002 4.63L11.5 0L5.24002 3.61002L0 8.25" fill="#000000" fill-rule="evenodd" fill-opacity="0.4" transform="translate(32.36 80.833)" />
        <path d="M85.36 54.61C86.8426 56.5972 87.7397 58.9596 87.95 61.43C86.4739 59.4392 85.5775 57.0788 85.36 54.61C85.36 54.61 85.36 54.61 85.36 54.61ZM99.93 54.8C97.82 40.45 90.11 26.26 80.93 20.95C76.52 18.4 72.44 18.31 69.17 20.22C69.17 20.22 63.27 23.62 63.27 23.62C63.27 23.62 62.94 23.82 62.94 23.82C62.6773 23.9646 62.4235 24.1249 62.18 24.3C61.6954 24.6335 61.2404 25.0082 60.82 25.42C60.82 25.42 60.62 25.61 60.62 25.61C60.44 25.7899 60.25 26 60.08 26.2C59.91 26.3999 59.65 26.7099 59.45 26.9799C59.0255 27.5387 58.6412 28.1268 58.3 28.74C58.12 29.05 57.95 29.38 57.79 29.74C57.79 29.74 6.26001 0 6.26001 0L0 3.61L0 7.61L0.529999 7.91L1.03 8.2L1.03 9L0.0299988 9.59L0.0299988 11.91L7.60001 27.91L15.08 32.24L17.57 29.24L24.17 33.19L27.96 39.68L32.14 42.09L37.37 37.45L43.79 41.16L45.95 50.07C45.95 50.07 56.74 56.31 56.74 56.31C57.2733 58.5778 57.9412 60.8117 58.7401 63.0001C58.8101 63.2201 58.9001 63.4501 58.9901 63.7001C62.57 73.1001 68.26 81.1501 74.6801 84.8601C75.4495 85.3164 76.2556 85.7078 77.0901 86.0301C77.5312 86.2055 77.9819 86.3557 78.44 86.4801C78.84 86.5868 79.2401 86.6768 79.64 86.7501C80.903 86.9803 82.1971 86.9803 83.4601 86.7501C83.4601 86.7501 83.98 86.6201 83.98 86.6201C84.2287 86.57 84.4728 86.4998 84.7101 86.4101C84.7101 86.4101 85.2701 86.1901 85.2701 86.1901C85.4683 86.1186 85.6592 86.0282 85.8401 85.9201C86.0249 85.8402 86.2052 85.7501 86.3801 85.6501C86.3801 85.6501 86.6401 85.4901 86.6401 85.4901C86.6872 85.4747 86.7312 85.451 86.7701 85.4201C88.2001 84.6001 91.7201 82.5602 92.6801 82.0201C97.4401 79.2601 100.52 72.2802 100.52 62.4102C100.512 59.8613 100.315 57.3175 99.9299 54.7989C99.9299 54.7989 99.93 54.8 99.93 54.8Z" fill="#0087FE" transform="translate(0.26 46.963)" />
        <path d="M83.79 62.7202C81.31 61.2902 79.31 57.0501 79.31 53.2502C79.31 49.4502 81.31 47.5201 83.79 48.9402C86.2701 50.3602 88.26 54.6102 88.26 58.4202C88.26 62.2302 86.26 64.1501 83.79 62.7202ZM91.4144 54.5943C89.365 40.3081 81.8406 26.1614 72.8719 20.8813C68.7145 18.4306 64.8694 18.2513 61.7465 19.9349C61.7465 19.9349 61.4244 20.1342 61.4244 20.1342C61.168 20.2782 60.9204 20.4379 60.6827 20.6123C60.2097 20.9447 59.7657 21.318 59.3555 21.7281C59.3555 21.7281 59.1603 21.9174 59.1603 21.9174C58.9846 22.0967 58.7992 22.306 58.6333 22.5052C58.4674 22.7044 58.2136 23.0133 58.0184 23.2823C57.6042 23.8389 57.2291 24.4248 56.8961 25.0357C56.7205 25.3445 56.5545 25.6733 56.3984 26.0319C55.4885 27.9576 54.8322 29.9976 54.4466 32.099C54.4466 32.099 0 0 0 0L0 3.98498L0.517236 4.28386L1.0052 4.57276L1.0052 5.3698L0.0292764 5.95759L0.0292764 8.26888L7.41699 24.2088L14.7169 28.5225L17.1469 25.5338L23.588 29.469L27.2867 35.9346L31.3661 38.3355L36.4701 33.713L42.7355 37.409L44.8435 46.2856C44.8435 46.2856 55.3835 52.5022 55.3835 52.5022C55.9039 54.7614 56.5557 56.987 57.3353 59.1671C57.4036 59.3863 57.4915 59.6154 57.5793 59.8645C61.0731 69.2292 66.6261 77.249 72.8915 80.9451C73.6424 81.3997 74.4291 81.7896 75.2434 82.1107C75.6739 82.2854 76.1138 82.4351 76.5609 82.559C76.9513 82.6653 77.3417 82.7549 77.732 82.828C78.9646 83.0573 80.2275 83.0573 81.4601 82.828C81.4601 82.828 81.9675 82.6985 81.9675 82.6985C82.2102 82.6486 82.4484 82.5786 82.68 82.4893C82.68 82.4893 83.2265 82.2701 83.2265 82.2701C83.4199 82.1988 83.6062 82.1087 83.7828 82.0011C83.9632 81.9215 84.1391 81.8317 84.3097 81.7321C84.3097 81.7321 84.5635 81.5727 84.5635 81.5727C84.6095 81.5573 84.6524 81.5337 84.6904 81.503C89.1406 78.6338 92 71.7796 92 62.1858C91.9836 59.6441 91.7879 57.107 91.4144 54.5942C91.4144 54.5942 91.4144 54.5943 91.4144 54.5943Z" fill="#0087FE" transform="translate(0 50.963)" />
        <path d="M8.95001 9.94183C8.95001 13.7518 6.95001 15.6818 4.48001 14.2518C2.01001 12.8218 0 8.59183 0 4.78183C0 0.971832 2 -0.95816 4.48001 0.471832C5.19421 0.906494 5.81598 1.47733 6.31003 2.15179C6.52499 4.62115 7.42166 6.98227 8.90005 8.9718C8.93665 9.29379 8.95334 9.61777 8.95001 9.94183Z" fill="#000000" fill-rule="evenodd" fill-opacity="0.4" transform="translate(79.31 99.432)" />
        <path d="M37.24 43.5019C37.24 53.3719 34.16 60.3519 29.4 63.112C28.4 63.652 24.92 65.6919 23.49 66.5119C28.05 63.6319 30.98 56.7519 30.98 47.122C30.9694 44.5744 30.7755 42.0311 30.4 39.5117C28.3 25.1717 20.59 10.9717 11.4 5.67168C7.13998 3.21167 3.19998 3.03168 0 4.72168C0 4.72168 5.89999 1.32169 5.89999 1.32169C9.16998 -0.588318 13.25 -0.498322 17.66 2.05168C26.85 7.36168 34.56 21.5517 36.66 35.9017C37.0409 38.4173 37.2348 40.9577 37.24 43.5019Z" fill="#FFFFFF" fill-rule="evenodd" fill-opacity="0.4" transform="translate(63.52 65.862)" />
        <path d="M7.48999 4.72C7.48999 14.35 4.56 21.23 0 24.11C1.42999 23.29 4.95001 21.25 5.91 20.71C10.67 17.95 13.75 10.97 13.75 1.10001C13.75 0.740021 13.75 0.369995 13.75 0C13.75 0 7.48999 3.62 7.48999 3.62C7.47998 4.01001 7.48999 4.37 7.48999 4.72Z" fill="#0087FE" fill-rule="evenodd" transform="translate(87.01 108.244)" />
        <path d="M7.48999 4.72C7.48999 14.35 4.56 21.23 0 24.11C1.42999 23.29 4.95001 21.25 5.91 20.71C10.67 17.95 13.75 10.97 13.75 1.10001C13.75 0.740021 13.75 0.369995 13.75 0C13.75 0 7.48999 3.62 7.48999 3.62C7.47998 4.01001 7.48999 4.37 7.48999 4.72Z" fill="#000000" fill-rule="evenodd" fill-opacity="0.1" transform="translate(87.01 108.244)" />
        <path d="M56.02 31.75L56.02 33.78L0 1.44L1.03 0.839996L1.03 0L56.02 31.75L56.02 31.75Z" fill="#000000" fill-rule="evenodd" fill-opacity="0.15" transform="translate(0.26 55.133)" />
        <path d="M56.02 31.76L56.02 32.95L0 0.610001L1.03 0.00999451L1.03 0L56.02 31.76L56.02 31.76Z" fill="#000000" fill-rule="evenodd" fill-opacity="0.15" transform="translate(0.26 55.963)" />
        <path d="M22.56 54.6612C20.4368 54.606 18.3664 53.9883 16.56 52.8712C7.42999 47.6012 0 31.9212 0 17.9212C0 9.75114 2.47 3.65115 6.78 1.16116C9.78 -0.578842 13.33 -0.358841 17.06 1.79117C26.18 7.06117 33.61 22.7912 33.61 36.7912C33.61 44.9511 31.14 51.0611 26.83 53.5411C25.53 54.2836 24.0571 54.6699 22.56 54.6612C22.56 54.6612 22.56 54.6612 22.56 54.6612ZM11.11 1.01122C9.77734 1.00378 8.4664 1.34877 7.31 2.01122C3.38 4.28122 1.03 10.2312 1.03 17.9112C1.03 31.5912 8.23001 46.9112 17.09 51.9912C20.48 53.9912 23.69 54.1712 26.36 52.6312C30.29 50.3613 32.64 44.4212 32.64 36.7412C32.64 23.0512 25.44 7.74123 16.59 2.65123C14.9359 1.6449 13.0456 1.09297 11.11 1.05119C11.11 1.05119 11.11 1.01122 11.11 1.01122Z" fill="#000000" fill-opacity="0.15" transform="translate(58.08 74.302)" />
        <path d="M57.79 29.74C56.8577 31.6729 56.1852 33.7207 55.79 35.83C55.79 35.83 0 3.61 0 3.61L6.26001 0C6.26001 0 57.79 29.74 57.79 29.74Z" fill="#FFFFFF" fill-rule="evenodd" fill-opacity="0.4" transform="translate(0.21 46.943)" />
        <path d="M45.105 38.95C48.025 33.42 51.365 21 53.025 14.73C55.385 5.83 51.565 0.229996 47.225 0C44.515 0.419998 35.585 32.89 35.585 32.89C34.585 33.68 21.015 40.57 16.655 42.3C15.8753 42.595 15.0147 42.595 14.235 42.3C12.145 41.54 10.715 41.68 8.66498 41.48C7.05499 41.32 6.24496 40.75 6.03497 41.09C5.6395 41.9651 5.98352 42.9972 6.82498 43.46C7.70773 43.9741 8.6474 44.3835 9.62497 44.6799C7.87241 45.2116 6.04578 45.4581 4.21497 45.4099C0.0149536 45.3199 -1.49503 47.1399 1.76495 51.4099C3.76495 54.0699 7.07495 54.9099 14.465 52.3599C16.585 51.6199 19.465 50.1899 22.155 49.2199C27.695 47.2199 29.155 46.9799 33.375 45.5499C39.525 43.47 43.805 41.41 45.105 38.95Z" fill="#FFA8A7" fill-rule="evenodd" transform="translate(85.405 40.863)" />
        <path d="M9.04001 0C11.59 0.350006 14.04 0.919998 15.55 3C17.06 5.08 18.27 8 16.79 15.95C15.6566 21.541 14.1397 27.0474 12.25 32.43C12.25 32.43 6.31 34.97 0 28.53C0 28.53 4.34 11.75 4.34 11.75C4.34 11.75 5.04001 0.839996 9.04001 0Z" fill="#455A64" fill-rule="evenodd" transform="translate(121.96 40.023)" />
      </g>
    </g>
  </g>
</svg>