<?xml version="1.0" encoding="UTF-8"?>
<!DOCTYPE svg PUBLIC "-//W3C//DTD SVG 1.1//EN" "http://www.w3.org/Graphics/SVG/1.1/DTD/svg11.dtd">
<!-- Creator: CorelDRAW -->
<svg xmlns="http://www.w3.org/2000/svg" xml:space="preserve" width="431.8mm" height="431.8mm" version="1.1" style="shape-rendering:geometricPrecision; text-rendering:geometricPrecision; image-rendering:optimizeQuality; fill-rule:evenodd; clip-rule:evenodd"
viewBox="0 0 43180 43180"
 xmlns:xlink="http://www.w3.org/1999/xlink"
 xmlns:xodm="http://www.corel.com/coreldraw/odm/2003">
 <defs>
  <style type="text/css">
   <![CDATA[
    .fil0 {fill:#0270AD}
    .fil1 {fill:#4D4D4D}
   ]]>
  </style>
 </defs>
 <g id="Layer_x0020_1">
  <metadata id="CorelCorpID_0Corel-Layer"/>
  <path class="fil0" d="M24973.85 21205.22c115.73,-50.47 2259.41,-2236.44 2503.38,-2480.4l267.55 -265.07c66.91,-68.96 47.19,-35.7 86.26,-121.48 83,-16.53 450.83,-418.1 514.02,-481.3 182.59,-182.58 351.18,-324.45 534.06,-507.35l4138.92 -4112.21c348.93,-349.49 678.86,-678.86 1028.06,-1028.06 174.63,-174.63 345.9,-327.16 461.78,-552.92 313.18,-610.15 -329.13,-1128.79 -879.58,-932.99 -267.05,94.99 -398.5,275.82 -609.03,432.39 -961.64,715.11 -2023.72,1445.98 -2968.15,2158.76l-1498.94 1091.23c-104.21,73.19 -196.33,143.47 -309.33,224.73 -206.22,148.26 -379.97,278.05 -587.46,427.24l-3600.7 2621.02c-109.96,79.07 -185.54,135.84 -293.73,213.63l-294.87 224.89c-103.03,41.37 -143,76.94 -227.62,133.83 -638.15,428.98 -1799.96,858.62 -2526.25,416.12l-4026.93 -2675.47c-480.58,-320.4 -933.31,-698.36 -1403.61,-812.69 -206.83,-50.28 -438.34,-60.14 -661.57,-18.87 -909.58,168.19 -1310.48,1251.67 -853.33,2094.51 93.07,171.61 1214.41,1306.06 1427.53,1536.48l1268.04 1348.82c184.85,184.85 601.33,670.87 741,750.15 87.3,180.41 278.14,322.5 420.57,464.82l1335.14 1388.55c304.7,304.7 589.83,589.83 894.54,894.53 304.93,304.94 609.22,620.12 1095.06,720.72 583.88,120.91 1010.27,-139.71 1294.89,-426.93l1815.73 -1815.84c213.38,-213.39 826.31,-748.27 914.57,-910.84z"/>
  <g id="_1605129923552">
   <path class="fil0" d="M21903.04 25193.55c0,239.35 171.31,316.32 353.08,474.7l901.75 700.4c547.56,386.25 1128.02,744.57 1726.37,1050.72 155.56,79.59 721.21,337.64 863.99,337.64 341.86,0 667.57,-324.11 667.57,-534.06 0,-495.89 -152.38,-1615.21 -232.31,-2170.94 -55.08,-382.91 -482.55,-2850.18 -567.12,-3064.45 -68.7,-174.09 -289.83,-292.07 -529.4,-45.44l-2349.46 2350.23c-39.93,40.18 -65.43,69.96 -107.03,106.59 -162.87,143.42 -727.44,634.42 -727.44,794.61z"/>
   <path class="fil1" d="M19259.46 14138.62c0,443 5.53,681.4 213.5,1094.95 324.01,644.3 1009.53,1228.19 1842.61,1228.19 750.72,0 1181.75,-156.46 1688.98,-660.87 1018.01,-1012.38 758.09,-2753.45 -558.53,-3460.28 -996.42,-534.93 -2392.4,-163.93 -2964.13,979.03 -102.13,204.15 -222.43,527.21 -222.43,818.98z"/>
   <path class="fil0" d="M17096.55 27783.72c586.73,0 1891,-982.26 2391.97,-1373.11l979.71 -862.8c262.18,-292.38 83.33,-412.2 -239.59,-682.57l-816.85 -731.9c-153.28,-128.88 -280.89,-239.66 -425.81,-375.28l-1237.3 -1085.84c-36.33,-28.04 -494.93,-610.87 -706.33,-176.43 -94.09,193.36 -430.18,3312.84 -426.01,3766.31 1.64,177.45 -27.82,229.64 -28.06,399.18 -0.35,246.35 -48.53,601.01 19.54,756.5 77.26,176.43 316.3,365.94 488.73,365.94z"/>
  </g>
  <g id="_1605129926096">
   <path class="fil0" d="M13037.73 13176c4.18,-4.62 10.13,-18.59 11.69,-14.59l68.74 -117.2c711.3,-1447.22 2060.05,-2672.79 3479.94,-3382.74 1391.84,-695.93 2540.83,-1010.18 4064.9,-1222.24 367.88,-51.2 1304.08,-118.34 1709.41,-57.12l804.35 76.84c242.85,35.29 507.52,73.77 750.38,130.81 1402.78,329.47 2519.68,803.22 3674.89,1638.95l736.41 572.02c279.26,215.23 1104.25,1047.97 1319.77,1323.8 27.86,35.66 191.82,235.78 208.46,247.28 117.16,81.07 253.07,25.69 209.77,-102.87 -70.19,-208.47 -775.49,-1149.3 -918.66,-1326.26 -183.11,-226.33 -830.16,-954.72 -1059.72,-1129.9l-586.99 -507.81c-43.29,-33.01 -92.73,-66.62 -137.64,-102.69 -469.17,-376.8 -1065.62,-744.61 -1607.27,-1036.3 -108.18,-58.25 -192.31,-95.68 -302.74,-151.2 -473.54,-238.07 -1067.73,-466.13 -1593.96,-622.37 -945.88,-280.84 -1899.67,-433.76 -2844.28,-463.52l-687.29 0c-2215.2,70.73 -4356.04,822.01 -6197.79,2197.18 -342.25,255.55 -1215,1027.16 -1495.03,1362.16l-1054.71 1375.24c-61.6,91.79 -104.7,165.89 -163.23,264.01 -121.2,203.2 -429.37,705.56 -472.21,889.7 -30.09,34.55 -12.36,8.66 -44.29,62.45 -132.56,223.35 -414.25,951.4 -486.39,1169.18 -275.77,832.55 -564.05,2061.42 -591.71,2986.45 -8.6,287.79 1.22,592.25 0.86,882.08 -0.22,180.16 14.41,288.9 25.13,428.81 11.4,148.52 28.29,302.21 28.29,429.81 97.73,1097.91 641.06,2977.4 1180.07,3862.59l336.95 597.66c422.74,701.29 832.87,1240.21 1400.79,1830.23l1197.91 1098.52c388.46,309.91 1670.61,1155.27 1999.21,1231.83 0,-447.48 3.18,-848.75 26.56,-1281.86l106.95 -1228.2c-242.44,-56.47 -1025.69,-644.25 -1312.41,-877.21 -328.74,-267.09 -836.15,-791.6 -1087.21,-1129.11 -93.37,-125.52 -181.97,-245.85 -270.57,-370.3 -314.1,-441.17 -672.95,-1186.06 -844.84,-1691.92 -106.51,-313.44 -211.08,-629.64 -287.38,-967.65l-203 -1074.58c0,-114.34 -18.11,-271.48 -34.35,-397.04 -12.95,-100.12 -15.99,-269.86 -34.5,-392.75 -85.04,-564.75 51.65,-1885.43 137.51,-2403.43 108.91,-657.09 327.27,-1401.41 568.07,-1995.39 41,-101.14 80.07,-198.21 128.39,-298.85 51.38,-106.98 116.83,-198.52 142.77,-312.5zm13404.77 10495.49c191.42,821.68 427.24,2197.21 427.24,3070.81 132.12,-30.78 801.72,-567.69 967.76,-714.51 423.23,-374.2 818.05,-788.14 1189.21,-1214.03 1176.94,-1350.44 2100.02,-3315.27 2397.78,-5105.68 98.48,-592.17 208.62,-1135.6 -69.32,-1616.83 -232.8,-403.07 -697.52,-614.79 -1334.51,-614.79 -797.23,0 -1213.98,421.94 -1383.7,1046.24 -111.71,410.83 42.71,1189.82 -274.97,2181.68 -324.89,1014.42 -864.87,1926.39 -1605.74,2666.71 -103.33,103.27 -197.63,222.65 -313.75,300.4z"/>
  </g>
  <g id="talent">
   <path class="fil1" d="M28231.58 35474.1l240.33 0 0 1735.67 -240.33 0 0 80.11 667.57 0c-66.14,-98.78 -46.31,-80.11 -267.03,-80.11l0 -1308.43c74.03,49.57 340.34,399.14 447.21,514.08l304.21 363.37c60.01,74.3 104.72,117.8 160.4,186.73 85.87,106.31 222.27,287.95 316.5,351.06 62.87,-14.64 78.87,-24.89 160.22,-26.7l0 -1815.78 240.33 0 0 -80.11 -640.87 0 0 80.11 240.32 0 0 1255.02c-124.8,-143.59 -1067.23,-1231.89 -1094.81,-1335.13l-534.05 0 0 80.11z"/>
   <path class="fil1" d="M23371.69 35474.1l240.32 0 0 1735.67 -240.32 0 0 80.11 1548.75 0 0 -507.36c0,-93.45 83.39,-51.03 -14.93,-96.67 -66.33,-30.79 -58.9,9.92 -81.17,49.28 -167.91,296.83 48.73,474.64 -731.68,474.64 -61.53,0 -80.11,-18.58 -80.11,-80.11 0,-943.49 -156.79,-774.38 640.87,-774.38l0 -80.1 -640.87 0 0 -720.98c0,-106.46 75.65,-80.1 267.03,-80.1 496.01,0 445.15,252.15 536.18,454.95 39.77,88.58 -2.12,76.32 75.76,72.26 82.64,-4.32 28.92,-38.1 28.92,-99.97l0 -507.35 -1548.75 0 0 80.11z"/>
   <path class="fil1" d="M33438.61 36061.55c153.87,-3.43 122.6,-15.79 164.7,-155.73 21.07,-70.06 47.2,-164.03 83.27,-237.16 89.82,-182.06 392.9,-265.95 392.9,-114.46l0 1575.46c0,122.48 -189.28,80.11 -320.44,80.11l0 80.11 1014.71 0c-68.21,-101.87 -50.71,-80.11 -293.73,-80.11l0 -1735.67c352.5,7.85 422.93,225.13 507.35,587.45l106.81 0 0 -667.56 -1628.86 0c0,249.54 -26.71,406.02 -26.71,667.56z"/>
   <path class="fil1" d="M8631.78 36061.55c221.62,-4.93 91.92,-76.58 247.98,-392.89 89.82,-182.06 392.88,-265.95 392.88,-114.46l0 1575.46c0,122.48 -189.26,80.11 -320.43,80.11l0 80.11 1014.71 0c-68.21,-101.87 -50.72,-80.11 -293.73,-80.11l0 -1735.67c352.49,7.85 422.94,225.13 507.35,587.45l106.81 0 0 -667.56 -1628.87 0c0,249.54 -26.7,406.02 -26.7,667.56z"/>
   <path class="fil1" d="M14319.46 35821.23c80,58.62 109.69,219.3 152.25,328.39l141.48 365.88 -534.05 0c12.07,-145.07 227.96,-545.72 240.32,-694.27zm-854.49 1388.54l0 80.11 587.47 0c-32.36,-121.15 -82.1,-80.11 -240.33,-80.11 50.63,-217.35 164.81,-404.64 213.62,-614.16l640.87 0c6.56,78.88 67.59,221.71 98.84,301.69 44.14,112.91 87.3,194.54 114.78,312.47l-213.62 0 0 80.11 801.08 0 0 -80.11c-164.68,0 -164.1,13.61 -212.36,-108.08 -35.5,-89.5 -58.76,-155.76 -96.65,-250.48l-392.93 -968.91c-64.75,-161.79 -131.51,-347.62 -205.95,-488.31l-213.62 0 -642.3 1707.54c-48.53,132.36 -67.19,108.24 -238.9,108.24z"/>
   <path class="fil1" d="M18645.3 35474.1l240.33 0 0 1735.67 -240.33 0 0 80.11 1495.36 0c0,-135.38 26.7,-145.48 26.7,-293.73l0 -373.84 -106.82 0c-29.87,128.23 -71.26,297.03 -128.02,406.03 -109.9,211.04 -321.16,181.43 -566.24,181.43 -61.53,0 -80.11,-18.58 -80.11,-80.11l0 -1575.46c0,-118.44 143.28,-80.1 267.02,-80.1l0 -80.11 -907.89 0 0 80.11z"/>
  </g>
  <g id="precised">
   <path class="fil0" d="M32717.64 32881.17l0 910.65 -453.95 0 0 186.92 2830.49 0c0,-204.6 -10.97,-440.31 -0.13,-640.99 21.26,-393.42 123.79,-480.52 -133.38,-480.52 -249.93,520.87 -122.77,937.78 -907.82,934.67 -204.69,-0.8 -409.53,-0.08 -614.24,-0.08l0 -884.64 0 -637.41 1148.22 0 0 -186.92 -1148.22 0 0 -401.11 0 -1014.13c717.35,0 1112.97,-133.19 1370.03,472.45 64.68,152.39 85.68,323.88 152.03,462.14l160.22 0c0,-369.9 -26.71,-698.47 -26.71,-1094.81l-2830.49 0 0 160.22 453.95 0 0 963.33 0 1250.23z"/>
   <path class="fil0" d="M4172.42 31631.14l0 1067.96 0 1092.72 -453.94 0 0 186.92 1735.68 0c-5.58,-249.99 -216.06,-186.92 -560.76,-186.92l0 -1092.72 0 -242.42c382.92,0 710.12,11.59 1025.93,-68.87 294.83,-75.1 548.16,-215 667.8,-465.17 152.18,-156.78 179.42,-617.54 58.18,-897.43 -110.39,-254.83 -385.24,-418.67 -663.26,-484.96 -377.09,-89.9 -1754.4,-32.86 -2263.57,-32.86l0 160.22 453.94 0 0 963.53zm1708.99 228.96c-34.41,171.8 -182.15,308.62 -342.66,360.74 -182.13,59.15 -397,48.93 -645.35,48.93l0 -612.69 0 -989.47c488.16,0 1036.6,-59.39 1042.55,666.42 1.55,188.57 15.6,408.58 -54.54,526.07z"/>
   <path class="fil0" d="M29166.18 31939.88c-233.71,-143.13 -485.3,-238.06 -660.52,-451.55 -603.08,-734.86 843.9,-1301.84 1256.08,-428.29 69.43,147.15 71.2,349.08 125.41,462.05 148.03,0 174.92,34.86 189.65,-104.07l-2.73 -964.04c-138.75,32.33 -183.29,23.69 -186.92,186.92 -171.02,-14.22 -562.75,-156.54 -847.01,-194.75 -290.89,-39.09 -643.49,33.5 -862.66,140.65 -814.98,398.47 -514.42,1222.2 -293.03,1327.92 131.42,233.93 1036.18,633.03 1335.13,812.14 52.58,66.08 400.85,273.96 262.64,713.41 -173.82,552.66 -1531.08,753.35 -1651.18,-689.85l-213.62 0 0 1228.32c198.41,-4.42 186.92,-44.38 186.92,-240.33 515.22,272.63 1080.59,396.13 1670.21,201.58 242.52,-80.02 471.08,-229.26 595.15,-419.56 96.15,-147.46 187.11,-390.17 151.48,-594.92 -205.48,-609.13 -449.47,-742 -1055,-985.63z"/>
   <path class="fil0" d="M9059.03 31529.62l0 1195.52 0 1066.68 -453.95 0 0 186.92 1443.52 1.58c124.23,2.07 203.58,27.79 215.14,-84.05 16.25,-157.18 -207.46,-104.45 -483.74,-104.45l0 -1066.77 0 -321.77 373.84 0 186.9 320.44c17.19,64.32 123.69,254.26 161.41,319.24l346.1 615.2c51.73,100.16 134.8,212.08 160.08,320.58l987.99 0c-6.39,-287.2 -159.77,-95.16 -299.73,-234.31l-608.16 -995.44c-56.33,-103.07 -214.14,-327.77 -240.32,-425.82 110.78,-53.16 207.46,-69.25 319.8,-134.14 113.48,-65.54 157.2,-116.79 255.44,-213 351.81,-405.79 297.42,-1180.06 -517.9,-1419.16 -378.13,-110.91 -1758.45,-49.48 -2300.37,-49.48l0 160.22 453.95 0 0 862.01zm1682.26 354.89c-168.77,399.97 -618.72,305.15 -961.29,305.15l0 -685.3 0 -836.75c496.07,0 712.39,-38.3 939.56,262.05 162.92,215.39 184.83,724.9 21.73,954.85z"/>
   <path class="fil0" d="M14239.36 32677.29l0 1114.53 -453.96 0 0 186.92 2830.5 0c0,-206.17 -18.89,-430.37 11.26,-629.6 16,-105.68 17.03,-191.14 17.86,-307.26 1.31,-180.29 16.31,-184.65 -162.63,-184.65 -126.74,264.13 -106.9,503.21 -323.91,744.21 -183.88,204.21 -256.43,191.19 -583.96,190.41 -204.71,-0.48 -409.48,-0.03 -614.19,-0.03l0 -1114.53 0 -407.52 1148.22 0 0 -186.92 -1148.22 0 0 -169.28 0 -1245.96c713.72,0 1114.14,-133.39 1370,472.47 62.61,148.23 90.73,334.3 152.06,462.12l160.21 0c0,-389.7 -26.7,-694.52 -26.7,-1094.81l-2830.5 0 0 160.22 453.96 0 0 1168.7 0 840.98z"/>
   <path class="fil0" d="M19633.3 31596.2c11.76,-480.87 446.76,-996.64 1013.96,-983.17 470.56,11.18 733.85,259.52 909.11,614.86 50.6,102.58 104.18,250.39 133.04,374.31l186.92 0 0 -1121.51c-184.18,0 -209.48,54.56 -213.62,240.32 -216.75,-114.69 -500.67,-241.76 -803.04,-265.07 -348.3,-26.84 -642.97,-24.26 -936.19,74.59 -481.13,162.2 -946.91,615.01 -1064.55,1065.67 -59.21,139.3 -106.82,420.48 -106.82,624.04 0,329.87 89.75,696.83 213.62,897.61 601.79,1038.32 1795.93,1111.48 2723.68,620.56 0,191.52 37.7,252.39 213.63,267.04l0 -1148.22 -186.92 0c-110.28,473.36 -389.7,882.92 -895.37,973.82 -625.15,112.4 -1037.9,-287.36 -1134.04,-738.73 -86.06,-159.18 -106.81,-584.18 -106.81,-848.24 0,-218.68 -10.47,-497.57 53.4,-647.88z"/>
   <path class="fil0" d="M25027.25 31645.65l0 -978.04 480.65 0 0 -160.22 -1655.56 0 0 160.22 453.94 0 0 877.16 0 698.48 0 647.62 0 900.95 -453.94 0 0 186.92 1628.86 0c-5.21,-233.94 -168.65,-186.92 -453.95,-186.92l0 -800.97 0 -724.35 0 -620.85z"/>
   <path class="fil0" d="M37630.94 32992.83l0 798.99 -453.94 0 0 186.92c1089.11,0 2108.8,163.03 2834.67,-369.65 275.52,-202.19 322.16,-315.93 503.16,-592.61 28.52,-120.28 85.3,-210.38 117.95,-361.73 34.44,-159.61 42.27,-277.89 42.27,-465.09 0,-186.1 -56.05,-627.16 -187.89,-774.38 -41.97,-194.67 -314.27,-465.68 -468.36,-572.08 -219.91,-151.85 -450.9,-257.05 -758.34,-309.77 -467.36,-80.14 -1524.45,-26.04 -2083.46,-26.04l0 160.22 453.94 0 0 801.08 0 900.72 0 623.42zm720.97 -623.42l0 -951.41 0 -750.39c520.17,0 972.47,-69.68 1266.75,362.11 100.9,148.04 104.64,238.09 175.2,385.75 3.05,136.55 44.46,216.66 53.48,373.57 8.72,151.58 26.63,223.12 26.63,401.7 0,185.68 -17.41,269.62 -26.68,426.2 -8.9,150.7 -52.34,269.94 -51.49,400.5 -3.81,5.61 -7.88,8.39 -9.14,18.14 -1.27,9.81 -7.1,14.24 -8.79,18.46 -302.59,750.78 -449.42,737.78 -1425.96,737.78l0 -798.86 0 -623.55z"/>
  </g>
 </g>
</svg>
